<svg xmlns="http://www.w3.org/2000/svg" width="1070" height="1130" viewBox="0 0 1070 1130"><g transform="translate(-424.721 -5939.134)"><g transform="translate(424.721 5939.134)"><path d="M1070,1130H0V0H1070V1130ZM361.474,385.917l6.329,24.877L361.474,542.84,189.55,585.27v10.455l11.467,20.535-65.525,432.572H926.914L858.74,610.952l10.876-25.682V578.4L699.025,538.2,683.955,405.243l6.87-19.326H653.732L617.6,362.672l-4.84-68.617h-6.248l-1.934-32.163H578.854l-50.933-60.157v-23.29h16.822V164.673H527.921V145.458H513.4v19.216H494.526v13.773H513.4v23.29l-51.475,59.438H437.867V290H432.03v72.676l-32.1,23.245Z" transform="translate(0 0)" fill="#faf7f0"/><path d="M-11171.922-4106.248h138.518v-57.993c0-28.964-47.591-91.8-74.062-91.8-23.041,0-64.455,53.532-64.455,91.8Z" transform="translate(11638.333 4801.821)" fill="#faf7f0"/><path d="M-11177.979-4108.853h94.615s-1.429-34.245-1.834-74.6c-.394-37.291-28.38-67.685-47.98-73.216-14.719,4.25-43.362,24.98-44.8,73.216C-11178.884-4137.288-11177.979-4108.853-11177.979-4108.853Z" transform="translate(11908.457 5020.322)" fill="#faf7f0"/><path d="M-11177.976-4107.936h95.2s-1.439-34.458-1.846-75.063c-.4-37.521-28.558-68.1-48.279-73.669-14.809,4.277-43.631,25.135-45.077,73.669C-11178.885-4136.547-11177.976-4107.936-11177.976-4107.936Z" transform="translate(11423.334 5019.864)" fill="#faf7f0"/><path d="M-11175.084-4222.171h31.992v-15.468s-8.706-18.512-15.817-18.551-16.175,18.551-16.175,18.551Z" transform="translate(11642.442 4564.914)" fill="#faf7f0"/><path d="M-11175.084-4222.171h31.992v-15.468s-8.706-18.512-15.817-18.551-16.175,18.551-16.175,18.551Z" transform="translate(11721.546 4564.914)" fill="#faf7f0"/><path d="M-11175.084-4227.627h26.861v-12.987s-7.31-15.543-13.281-15.576-13.58,15.576-13.58,15.576Z" transform="translate(11683.17 4497.728)" fill="#faf7f0"/></g><g transform="translate(448.663 6075.5)" opacity="0.919"><path d="M-11175.084-4233.475h21.363V-4243.8s-5.814-12.361-10.564-12.387-10.8,12.387-10.8,12.387Z" transform="translate(11623.815 4435.324)" fill="none" stroke="#44303c" stroke-width="2"/><path d="M-11175.084-4233.938h20.926v-10.118s-5.693-12.109-10.348-12.134-10.578,12.134-10.578,12.134Z" transform="translate(11703.138 4435.557)" fill="none" stroke="#44303c" stroke-width="2"/><path d="M-11171.922-4128.739h117.719v-49.285c0-24.615-40.445-78.016-62.942-78.016-19.581,0-54.776,45.494-54.776,78.016Z" transform="translate(11624.791 4676.96)" fill="none" stroke="#44303c" stroke-width="2"/><path d="M-11178.062-4139.766h74.828s-1.131-27.083-1.45-59c-.312-29.492-22.446-53.529-37.947-57.9-11.64,3.362-34.294,19.756-35.431,57.9C-11178.777-4162.254-11178.062-4139.766-11178.062-4139.766Z" transform="translate(11409.62 4902.779)" fill="none" stroke="#44303c" stroke-width="2"/><path d="M-11178.064-4140.854h74.131s-1.119-26.831-1.436-58.45c-.31-29.218-22.237-53.032-37.595-57.365-11.531,3.331-33.975,19.572-35.1,57.365C-11178.773-4163.132-11178.064-4140.854-11178.064-4140.854Z" transform="translate(11894.803 4903.323)" fill="none" stroke="#44303c" stroke-width="2"/><path d="M-11175.084-4237.758h17.334v-8.38s-4.717-10.03-8.57-10.051-8.764,10.051-8.764,10.051Z" transform="translate(11663.991 4367.523)" fill="none" stroke="#44303c" stroke-width="2"/><path d="M-11171.922-4106.248h138.518v-57.993c0-28.964-47.591-91.8-74.062-91.8-23.041,0-64.455,53.532-64.455,91.8Z" transform="translate(11614.392 4665.714)" fill="none" stroke="#44303c" stroke-width="2"/><path d="M-11177.979-4108.853h94.615s-1.429-34.245-1.834-74.6c-.394-37.291-28.38-67.685-47.98-73.216-14.719,4.25-43.362,24.98-44.8,73.216C-11178.884-4137.288-11177.979-4108.853-11177.979-4108.853Z" transform="translate(11884.519 4884.323)" fill="none" stroke="#44303c" stroke-width="2"/><path d="M-11177.976-4107.936h95.2s-1.439-34.458-1.846-75.063c-.4-37.521-28.558-68.1-48.279-73.669-14.809,4.277-43.631,25.135-45.077,73.669C-11178.885-4136.547-11177.976-4107.936-11177.976-4107.936Z" transform="translate(11399.388 4883.864)" fill="none" stroke="#44303c" stroke-width="2"/><path d="M-11175.084-4222.171h31.992v-15.468s-8.706-18.512-15.817-18.551-16.175,18.551-16.175,18.551Z" transform="translate(11618.5 4428.673)" fill="none" stroke="#44303c" stroke-width="2"/><path d="M-11175.084-4222.171h31.992v-15.468s-8.706-18.512-15.817-18.551-16.175,18.551-16.175,18.551Z" transform="translate(11697.604 4428.673)" fill="none" stroke="#44303c" stroke-width="2"/><path d="M-11175.084-4227.627h26.861v-12.987s-7.31-15.543-13.281-15.576-13.58,15.576-13.58,15.576Z" transform="translate(11659.228 4361.458)" fill="none" stroke="#44303c" stroke-width="2"/><path d="M63.663,0h1023.4" transform="translate(-63.663 783.5)" fill="none" stroke="#44303c" stroke-width="2"/><path d="M0,0H108.3" transform="translate(876.049 606)" fill="none" stroke="#44303c" stroke-width="2"/><line x1="108" transform="translate(31.837 617)" fill="none" stroke="#44303c" stroke-width="2"/><line y2="114" transform="translate(971.049 591)" fill="none" stroke="#44303c" stroke-width="2"/><line y2="150" transform="translate(46.837 598)" fill="none" stroke="#44303c" stroke-width="2"/><line y1="18.951" transform="translate(480.51 43.049)" fill="none" stroke="#44303c" stroke-width="2"/><line x1="27.915" transform="translate(458.175 48.632)" fill="none" stroke="#44303c" stroke-width="2"/><line y2="33.099" transform="translate(462.64 20)" fill="none" stroke="#44303c" stroke-width="2"/><line x1="31.265" transform="translate(454.825 24.184)" fill="none" stroke="#44303c" stroke-width="2"/><line y2="16.184" transform="translate(481.743 9)" fill="none" stroke="#44303c" stroke-width="2"/><line x2="37.895" transform="translate(476.047 3.619)" fill="none" stroke="#44303c" stroke-width="2"/><line y2="25.184" transform="translate(511.548)" fill="none" stroke="#44303c" stroke-width="2"/><line x1="27" transform="translate(506.948 23)" fill="none" stroke="#44303c" stroke-width="2"/><line y2="34.632" transform="translate(527.418 17.368)" fill="none" stroke="#44303c" stroke-width="2"/><line x1="23" transform="translate(510.448 48.5)" fill="none" stroke="#44303c" stroke-width="2"/><line x1="0.07" y2="21.951" transform="translate(513.946 43.049)" fill="none" stroke="#44303c" stroke-width="2"/><line x2="44" y2="51" transform="translate(508.95 59)" fill="none" stroke="#44303c" stroke-width="2"/></g></g></svg>