<svg xmlns="http://www.w3.org/2000/svg" xmlns:xlink="http://www.w3.org/1999/xlink" width="1070" height="1130" viewBox="0 0 1070 1130"><defs><clipPath id="a"><path d="M791.423,984.41H0L21.935,794.065H764.11ZM761.672,777.075H23.893L59.211,470.6,47.744,450.073V439.622l171.923-42.411L226,265.223l-6.33-24.866h38.459l32.1-23.234V144.477h5.837v-28.81h24.06L371.6,56.255V32.976H352.72V19.209H371.6V0h14.52V19.209h16.822V32.976H386.115V56.255l50.932,60.131h25.727l1.934,32.15h6.248l4.84,68.587,36.13,23.234H549.02l-6.871,19.318,15.07,132.894,170.59,40.181v6.872l-10.877,25.672,44.739,311.78Zm-613.042-159.6h0c-14.961,4.319-43.635,25.267-45.077,73.637-.9,45.967-.009,74.746,0,75.031h95.2l0-.072c-.148-3.656-1.459-36.821-1.841-74.96a79.726,79.726,0,0,0-4.937-26.546,89.592,89.592,0,0,0-11.955-22.251,83.525,83.525,0,0,0-15.579-16.262,47.792,47.792,0,0,0-15.808-8.578Zm484.843.458c-14.869,4.291-43.367,25.109-44.8,73.183-.9,45.787-.009,74.286,0,74.569h94.616l0-.075c-.147-3.636-1.45-36.617-1.829-74.494a79.243,79.243,0,0,0-4.908-26.383,89.052,89.052,0,0,0-11.881-22.114,83.023,83.023,0,0,0-15.482-16.161,47.5,47.5,0,0,0-15.71-8.525ZM389.06,400.152c-5.512,0-12.356,3.1-19.792,8.958a116.01,116.01,0,0,0-21.077,22.577,143.552,143.552,0,0,0-16.756,29.749,101.787,101.787,0,0,0-5.007,15.55,67.121,67.121,0,0,0-1.824,14.925v57.968H463.123V491.911c0-6.88-2.714-16.061-7.85-26.552a155.311,155.311,0,0,0-8.6-15.2c-3.259-5.1-6.843-10.143-10.65-14.98-7.909-10.049-16.283-18.609-24.218-24.757a63.56,63.56,0,0,0-11.957-7.511A26.17,26.17,0,0,0,389.06,400.152ZM420.808,163.2c-1.622,0-3.48.976-5.523,2.9a38.757,38.757,0,0,0-5.219,6.374,85.913,85.913,0,0,0-5.41,9.269V197.2h31.991V181.74a83.888,83.888,0,0,0-5.241-9.257,37.866,37.866,0,0,0-5.1-6.372c-2.008-1.924-3.849-2.9-5.472-2.913Zm-79.1,0c-1.622,0-3.48.976-5.523,2.9a38.758,38.758,0,0,0-5.219,6.374,85.912,85.912,0,0,0-5.41,9.269V197.2h31.992V181.74a84.076,84.076,0,0,0-5.242-9.257,37.878,37.878,0,0,0-5.1-6.372c-2.009-1.924-3.849-2.9-5.471-2.913ZM379.841,96.04c-1.361,0-2.921.819-4.637,2.433a32.537,32.537,0,0,0-4.382,5.352,72.232,72.232,0,0,0-4.542,7.783v12.983H393.14V111.609a70.746,70.746,0,0,0-4.4-7.773,31.791,31.791,0,0,0-4.285-5.35c-1.687-1.616-3.232-2.439-4.595-2.446Z" transform="translate(141.527 145.59)" fill="#faf7f0"/></clipPath><pattern id="b" preserveAspectRatio="none" width="100%" height="100%" viewBox="0 0 1201 807"><image width="1201" height="807" xlink:href="ruinas-4.jpg"/></pattern><pattern id="c" preserveAspectRatio="none" width="100%" height="100%" viewBox="0 0 1200 830"><image width="1200" height="830" xlink:href="ruinas-1.jpg"/></pattern><pattern id="d" preserveAspectRatio="none" width="100%" height="100%" viewBox="0 0 1199 1244"><image width="1199" height="1244" xlink:href="ruinas-2.jpg"/></pattern><pattern id="e" preserveAspectRatio="none" width="100%" height="100%" viewBox="0 0 1201 1063"><image width="1201" height="1063" xlink:href="ruinas-3.jpg"/></pattern><pattern id="f" preserveAspectRatio="none" width="100%" height="100%" viewBox="0 0 1200 651"><image width="1200" height="651" xlink:href="old-5.jpg"/></pattern><pattern id="g" preserveAspectRatio="none" width="100%" height="100%" viewBox="0 0 1200 651"><image width="1200" height="651" xlink:href="old-5-red.jpg"/></pattern><pattern id="h" preserveAspectRatio="none" width="100%" height="100%" viewBox="0 0 1200 1167"><image width="1200" height="1167" xlink:href="old-4.jpg"/></pattern><pattern id="i" preserveAspectRatio="none" width="100%" height="100%" viewBox="0 0 1200 1167"><image width="1200" height="1167" xlink:href="old-4-red.jpg"/></pattern><pattern id="j" preserveAspectRatio="none" width="100%" height="100%" viewBox="0 0 1200 825"><image width="1200" height="825" xlink:href="old-3.jpg"/></pattern><pattern id="k" preserveAspectRatio="none" width="100%" height="100%" viewBox="0 0 1200 825"><image width="1200" height="825" xlink:href="old-3-red.jpg"/></pattern><pattern id="l" preserveAspectRatio="none" width="100%" height="100%" viewBox="0 0 1200 805"><image width="1200" height="805" xlink:href="old-2.jpg"/></pattern><pattern id="m" preserveAspectRatio="none" width="100%" height="100%" viewBox="0 0 1200 805"><image width="1200" height="805" xlink:href="old-2-red.jpg"/></pattern><pattern id="n" preserveAspectRatio="none" width="100%" height="100%" viewBox="0 0 1200 804"><image width="1200" height="804" xlink:href="old-1.jpg"/></pattern><pattern id="o" preserveAspectRatio="none" width="100%" height="100%" viewBox="0 0 1200 804"><image width="1200" height="804" xlink:href="old-1-red.jpg"/></pattern><clipPath id="q"><rect width="1070" height="1130"/></clipPath></defs><g id="p" clip-path="url(#q)"><g clip-path="url(#a)"><g transform="translate(120.225 250.636)"><g transform="translate(0 240.576)"><g transform="translate(0 0)" fill="#faf7f0" stroke="#44303c" stroke-width="1"><rect width="534.019" height="372.295" rx="8" stroke="none"/><rect x="0.5" y="0.5" width="533.019" height="371.295" rx="7.5" fill="none"/></g><rect width="492.973" height="331.248" rx="4" transform="translate(20.523 20.523)" fill="url(#b)"/></g><g transform="translate(332.775 307.185)"><g transform="translate(0 0.179)" fill="#faf7f0" stroke="#44303c" stroke-width="1"><rect width="487" height="348" rx="8" stroke="none"/><rect x="0.5" y="0.5" width="486" height="347" rx="7.5" fill="none"/></g><rect width="449" height="310" rx="4" transform="translate(19 18.179)" fill="url(#c)"/></g><g transform="translate(190.171 0)"><g fill="#faf7f0" stroke="#44303c" stroke-width="1"><rect width="435.071" height="450.143" rx="8" stroke="none"/><rect x="0.5" y="0.5" width="434.071" height="449.143" rx="7.5" fill="none"/></g><rect width="401.579" height="416.65" rx="4" transform="translate(16.746 16.746)" fill="url(#d)"/></g><g transform="translate(40.549 145.601)"><g transform="translate(0 0)" fill="#faf7f0" stroke="#44303c" stroke-width="1"><rect width="416.782" height="372.573" rx="8" stroke="none"/><rect x="0.5" y="0.5" width="415.782" height="371.573" rx="7.5" fill="none"/></g><rect width="384.747" height="340.538" rx="4" transform="translate(16.018 16.018)" fill="url(#e)"/></g></g><g transform="translate(90.001 126.008)"><g transform="translate(0 496.784)"><rect width="872" height="492" rx="8" transform="translate(0 0.207)" fill="#faf7f0"/><rect width="827" height="448" rx="4" transform="translate(20 20.207)" fill="url(#f)"/></g><g transform="translate(0 496.784)"><rect width="872" height="492" rx="8" transform="translate(0 0.207)" fill="#f73868"/><rect width="827" height="448" rx="4" transform="translate(20 20.207)" fill="url(#g)"/></g><g transform="translate(544.999 363.842)"><rect width="394" height="384" rx="8" transform="translate(0 0.149)" fill="#faf7f0"/><rect width="374" height="363" rx="4" transform="translate(10 10.149)" fill="url(#h)"/></g><g transform="translate(544.999 363.842)"><rect width="394" height="384" rx="8" transform="translate(0 0.149)" fill="#f73868"/><rect width="374" height="363" rx="4" transform="translate(10 10.149)" fill="url(#i)"/></g><g transform="translate(38.999 406.824)"><rect width="390" height="274" rx="8" transform="translate(0 0.168)" fill="#faf7f0"/><rect width="371" height="255" rx="4" transform="translate(9 10.168)" fill="url(#j)"/></g><g transform="translate(38.999 406.824)"><rect width="390" height="274" rx="8" transform="translate(0 0.168)" fill="#f73868"/><rect width="371" height="255" rx="4" transform="translate(9 10.168)" fill="url(#k)"/></g><g transform="translate(239 241.895)"><rect width="439" height="302" rx="8" transform="translate(0 0.096)" fill="#faf7f0"/><rect width="419" height="281" rx="4" transform="translate(10 10.096)" fill="url(#l)"/></g><g transform="translate(239 241.895)"><rect width="439" height="302" rx="8" transform="translate(0 0.096)" fill="#f73868"/><rect width="419" height="281" rx="4" transform="translate(10 10.096)" fill="url(#m)"/></g><g transform="translate(198.999)"><rect width="413" height="283" rx="8" transform="translate(0 -0.009)" fill="#faf7f0"/><rect width="392" height="263" rx="4" transform="translate(10 9.992)" fill="url(#n)"/></g><g transform="translate(198.999)"><rect width="413" height="283" rx="8" transform="translate(0 -0.009)" fill="#f73868"/><rect width="392" height="263" rx="4" transform="translate(10 9.992)" fill="url(#o)"/></g></g></g><g transform="translate(23.663 136.5)" opacity="0.919"><path d="M-11175.084-4233.475h21.363V-4243.8s-5.814-12.361-10.564-12.387-10.8,12.387-10.8,12.387Z" transform="translate(11623.815 4435.324)" fill="none" stroke="#44303c" stroke-width="1"/><path d="M-11175.084-4233.938h20.926v-10.118s-5.693-12.109-10.348-12.134-10.578,12.134-10.578,12.134Z" transform="translate(11703.138 4435.557)" fill="none" stroke="#44303c" stroke-width="1"/><path d="M-11171.922-4128.739h117.719v-49.285c0-24.615-40.445-78.016-62.942-78.016-19.581,0-54.776,45.494-54.776,78.016Z" transform="translate(11624.791 4676.96)" fill="none" stroke="#44303c" stroke-width="1"/><path d="M-11178.062-4139.766h74.828s-1.131-27.083-1.45-59c-.312-29.492-22.446-53.529-37.947-57.9-11.64,3.362-34.294,19.756-35.431,57.9C-11178.777-4162.254-11178.062-4139.766-11178.062-4139.766Z" transform="translate(11409.62 4902.779)" fill="none" stroke="#44303c" stroke-width="1"/><path d="M-11178.064-4140.854h74.131s-1.119-26.831-1.436-58.45c-.31-29.218-22.237-53.032-37.595-57.365-11.531,3.331-33.975,19.572-35.1,57.365C-11178.773-4163.132-11178.064-4140.854-11178.064-4140.854Z" transform="translate(11894.803 4903.323)" fill="none" stroke="#44303c" stroke-width="1"/><path d="M-11175.084-4237.758h17.334v-8.38s-4.717-10.03-8.57-10.051-8.764,10.051-8.764,10.051Z" transform="translate(11663.991 4367.523)" fill="none" stroke="#44303c" stroke-width="1"/><path d="M-11171.922-4106.248h138.518v-57.993c0-28.964-47.591-91.8-74.062-91.8-23.041,0-64.455,53.532-64.455,91.8Z" transform="translate(11614.392 4665.714)" fill="none" stroke="#44303c" stroke-width="1"/><path d="M-11177.979-4108.853h94.615s-1.429-34.245-1.834-74.6c-.394-37.291-28.38-67.685-47.98-73.216-14.719,4.25-43.362,24.98-44.8,73.216C-11178.884-4137.288-11177.979-4108.853-11177.979-4108.853Z" transform="translate(11884.519 4884.323)" fill="none" stroke="#44303c" stroke-width="1"/><path d="M-11177.976-4107.936h95.2s-1.439-34.458-1.846-75.063c-.4-37.521-28.558-68.1-48.279-73.669-14.809,4.277-43.631,25.135-45.077,73.669C-11178.885-4136.547-11177.976-4107.936-11177.976-4107.936Z" transform="translate(11399.388 4883.864)" fill="none" stroke="#44303c" stroke-width="1"/><path d="M-11175.084-4222.171h31.992v-15.468s-8.706-18.512-15.817-18.551-16.175,18.551-16.175,18.551Z" transform="translate(11618.5 4428.673)" fill="none" stroke="#44303c" stroke-width="1"/><path d="M-11175.084-4222.171h31.992v-15.468s-8.706-18.512-15.817-18.551-16.175,18.551-16.175,18.551Z" transform="translate(11697.604 4428.673)" fill="none" stroke="#44303c" stroke-width="1"/><path d="M-11175.084-4227.627h26.861v-12.987s-7.31-15.543-13.281-15.576-13.58,15.576-13.58,15.576Z" transform="translate(11659.228 4361.458)" fill="none" stroke="#44303c" stroke-width="1"/><path d="M63.663,0h1023.4" transform="translate(-63.663 794.5)" fill="none" stroke="#44303c" stroke-width="1"/><path d="M0,0H108.3" transform="translate(876.049 606)" fill="none" stroke="#44303c" stroke-width="1"/><line x1="108" transform="translate(31.837 617)" fill="none" stroke="#44303c" stroke-width="1"/><line y2="114" transform="translate(971.049 591)" fill="none" stroke="#44303c" stroke-width="1"/><line y2="150" transform="translate(46.837 598)" fill="none" stroke="#44303c" stroke-width="1"/><line y1="18.951" transform="translate(480.51 43.049)" fill="none" stroke="#44303c" stroke-width="1"/><line x1="27.915" transform="translate(458.175 48.632)" fill="none" stroke="#44303c" stroke-width="1"/><line y2="33.099" transform="translate(462.64 20)" fill="none" stroke="#44303c" stroke-width="1"/><line x1="31.265" transform="translate(454.825 24.184)" fill="none" stroke="#44303c" stroke-width="1"/><line y2="16.184" transform="translate(481.743 9)" fill="none" stroke="#44303c" stroke-width="1"/><line x2="37.895" transform="translate(476.047 3.619)" fill="none" stroke="#44303c" stroke-width="1"/><line y2="25.184" transform="translate(511.548)" fill="none" stroke="#44303c" stroke-width="1"/><line x1="27" transform="translate(506.948 23)" fill="none" stroke="#44303c" stroke-width="1"/><line y2="34.632" transform="translate(527.418 17.368)" fill="none" stroke="#44303c" stroke-width="1"/><line x1="23" transform="translate(510.448 48.5)" fill="none" stroke="#44303c" stroke-width="1"/><line x1="0.07" y2="21.951" transform="translate(513.946 43.049)" fill="none" stroke="#44303c" stroke-width="1"/><line x2="44" y2="51" transform="translate(508.95 59)" fill="none" stroke="#44303c" stroke-width="1"/></g><g transform="translate(289 126)" fill="none" stroke="#44303c" stroke-width="1"><rect width="413" height="283" rx="8" stroke="none"/><rect x="0.5" y="0.5" width="412" height="282" rx="7.5" fill="none"/></g><g transform="translate(329 368)" fill="none" stroke="#44303c" stroke-width="1"><rect width="439" height="302" rx="8" stroke="none"/><rect x="0.5" y="0.5" width="438" height="301" rx="7.5" fill="none"/></g><g transform="translate(129 533)" fill="none" stroke="#44303c" stroke-width="1"><rect width="390" height="274" rx="8" stroke="none"/><rect x="0.5" y="0.5" width="389" height="273" rx="7.5" fill="none"/></g><g transform="translate(635 490)" fill="none" stroke="#44303c" stroke-width="1"><rect width="394" height="384" rx="8" stroke="none"/><rect x="0.5" y="0.5" width="393" height="383" rx="7.5" fill="none"/></g><g transform="translate(90 622)" fill="none" stroke="#44303c" stroke-width="1"><rect width="872" height="493" rx="8" stroke="none"/><rect x="0.5" y="0.5" width="871" height="492" rx="7.5" fill="none"/></g></g></svg>