<svg class="iglesia-fixed" xmlns="http://www.w3.org/2000/svg" width="100%" height="100%" viewBox="0 0 1070 1130">
  <g class="lines-fixed" transform="translate(23.663 136.5)" fill="none" stroke="#44303c">
    <path
      d="M448.731 201.849h21.363v-10.325s-5.814-12.361-10.564-12.387-10.8 12.387-10.8 12.387zM528.054 201.619h20.926v-10.118s-5.693-12.109-10.348-12.134-10.578 12.134-10.578 12.134zM452.869 548.221h117.719v-49.285c0-24.615-40.445-78.016-62.942-78.016-19.581 0-54.776 45.494-54.776 78.016zM231.558 763.013h74.828s-1.131-27.083-1.45-59c-.312-29.492-22.446-53.529-37.947-57.9-11.64 3.362-34.294 19.756-35.431 57.9-.715 36.512 0 59 0 59zM716.739 762.469h74.131s-1.119-26.831-1.436-58.45c-.31-29.218-22.237-53.032-37.595-57.365-11.531 3.331-33.975 19.572-35.1 57.365-.709 36.172 0 58.45 0 58.45zM488.907 129.765h17.334v-8.38s-4.717-10.03-8.57-10.051-8.764 10.051-8.764 10.051z" />
    <path
      d="M442.47 559.466h138.518v-57.993c0-28.964-47.591-91.8-74.062-91.8-23.041 0-64.455 53.532-64.455 91.8zM706.54 775.47h94.615s-1.429-34.245-1.834-74.6c-.394-37.291-28.38-67.685-47.98-73.216-14.719 4.25-43.362 24.98-44.8 73.216-.906 46.165-.001 74.6-.001 74.6zM221.412 775.928h95.2s-1.439-34.458-1.846-75.063c-.4-37.521-28.558-68.1-48.279-73.669-14.809 4.277-43.631 25.135-45.077 73.669-.907 46.452.002 75.063.002 75.063zM443.416 206.502h31.992v-15.468s-8.706-18.512-15.817-18.551-16.175 18.551-16.175 18.551zM522.52 206.502h31.992v-15.468s-8.706-18.512-15.817-18.551-16.175 18.551-16.175 18.551zM484.144 133.831h26.861v-12.987s-7.31-15.543-13.281-15.576-13.58 15.576-13.58 15.576zM0 794.5h1023.4M876.049 606h108.3" />
    <line x1="108" transform="translate(31.837 617)" />
    <line y2="114" transform="translate(971.049 591)" />
    <line y2="150" transform="translate(46.837 598)" />
    <line y1="18.951" transform="translate(480.51 43.049)" />
    <line x1="27.915" transform="translate(458.175 48.632)" />
    <line y2="33.099" transform="translate(462.64 20)" />
    <line x1="31.265" transform="translate(454.825 24.184)" />
    <line y2="16.184" transform="translate(481.743 9)" />
    <line x2="37.895" transform="translate(476.047 3.619)" />
    <line y2="25.184" transform="translate(511.548)" />
    <line x1="27" transform="translate(506.948 23)" />
    <line y2="34.632" transform="translate(527.418 17.368)" />
    <line x1="23" transform="translate(510.448 48.5)" />
    <line x1=".07" y2="21.951" transform="translate(513.946 43.049)" />
    <line x2="44" y2="51" transform="translate(508.95 59)" />
  </g>
</svg>