<svg xmlns="http://www.w3.org/2000/svg" viewBox="0 0 995.9 194.4"><path d="M347.3,56.7V26.6a20.5,20.5,0,0,1,.2-3.6l-.9,2L334.9,46.4h-4.4L318.6,25a7.8,7.8,0,0,1-.9-2c0,.2.2,1.8.2,3.6V56.7H306.4V4.4h11.3l14.1,25.5c.5,1,.9,2.2,1,2.4a10.9,10.9,0,0,1,.9-2.4L347.1,4.4h11.7V56.7Z" transform="translate(-14.3 -2.8)" fill="#725641"/><polygon points="355.2 54 355.2 1.6 385.7 1.6 385.7 11.3 366.7 11.3 366.7 23.6 384.3 23.6 384.3 33.2 366.7 33.2 366.7 44.3 386.8 44.3 386.8 54 355.2 54" fill="#725641"/><path d="M449,56.7V26.6a20.5,20.5,0,0,1,.2-3.6l-.9,2L436.6,46.4h-4.4L420.3,25a7.8,7.8,0,0,1-.9-2c0,.2.2,1.8.2,3.6V56.7H408.1V4.4h11.3l14.1,25.5c.5,1,.9,2.2,1,2.4a10.9,10.9,0,0,1,.9-2.4L448.8,4.4h11.7V56.7Z" transform="translate(-14.3 -2.8)" fill="#725641"/><path d="M549.1,56.7,534.5,32V56.7H523.1V4.4h18.7c11,0,18,6.6,18,15.6S555,33,548.1,34.9l14,21.8Zm-7.3-42.6h-7.3V26.7h7.3c4.1,0,6.6-2.6,6.6-6.7s-2.9-5.9-6.6-5.9" transform="translate(-14.3 -2.8)" fill="#725641"/><rect x="555.3" y="1.6" width="11.5" height="52.34" fill="#725641"/><path d="M623.6,56.7l-4-13.1H603.7l-4.1,13.1H587.5L606.2,4.4h11.1l19,52.3ZM612.9,21.1c-.5-1.6-1.1-3.7-1.2-4.1s-.5,2.3-1,4.1l-4,12.8h10.1Z" transform="translate(-14.3 -2.8)" fill="#725641"/><path d="M58.5,57.8V19.3c0-.8.1-1.8.1-1.9a9,9,0,0,1-.7,1.1L41.5,40.7H38.6L22,19.1a4.9,4.9,0,0,1-.7-1.1,18.3,18.3,0,0,1,.2,1.9V57.8H14.3V5.5h6.1L40.1,31.1,59.2,5.5h6.4V57.8Z" transform="translate(-14.3 -2.8)" fill="#725641"/><path d="M94.4,57.8V54.3a10.2,10.2,0,0,1-8.5,4.4c-7.1,0-11-3.9-11-11.3V28h6.9V46.2c0,3.3,1.9,6.2,5.6,6.2s7-4.7,7-8.3V28h6.8V57.8Z" transform="translate(-14.3 -2.8)" fill="#725641"/><path d="M118.7,58.6a16.9,16.9,0,0,1-10.8-3.8l3.4-5.1a12.4,12.4,0,0,0,7,2.8c1.9,0,3.9-.8,3.9-2.6s-1.9-3.2-4.5-4.5-9-3.8-9-9.9c0-4.6,4.5-8.3,9.9-8.3a17,17,0,0,1,9.6,2.6l-2.8,5.4a12.1,12.1,0,0,0-6.5-2.1c-1.6,0-3.4.4-3.4,2.3s2.2,2.6,4.8,3.9,8.7,4.4,8.7,10.2-4.3,9.1-10.3,9.1" transform="translate(-14.3 -2.8)" fill="#725641"/><path d="M140.9,43.8a8.6,8.6,0,0,0,8.8,8.6,14.6,14.6,0,0,0,10-3.6l4.1,4.3c-3.7,3.2-7.8,5.6-14.2,5.6-8.7,0-15.5-6-15.5-16.1s6.3-15.4,15.3-15.4,14.9,6.9,14.9,16.6Zm8.2-10.6c-3.9,0-7.1,2.1-7.9,5.4H157c-1.1-3.4-4.1-5.4-7.9-5.4" transform="translate(-14.3 -2.8)" fill="#725641"/><path d="M184.4,58.7c-8.8,0-15.2-6.2-15.2-16,0-8,5.7-15.5,15.1-15.5a15.1,15.1,0,0,1,15.5,15.2c0,9.1-6.3,16.3-15.4,16.3m-.1-25.2c-5.1,0-8.1,4.1-8.1,9.2s3,9.7,8,9.7,8.6-4.2,8.6-9.5-3.3-9.4-8.5-9.4" transform="translate(-14.3 -2.8)" fill="#725641"/><path d="M237.2,57.8V54.5a10.1,10.1,0,0,1-8.5,4.2c-7.7,0-13.2-7.3-13.2-16s5.5-15.5,13.2-15.5a10.1,10.1,0,0,1,8.5,4V5.5H244V57.8Zm-7.1-24.3c-4.9,0-7.6,4.6-7.6,9.5s2.7,9.4,7.5,9.4,7.8-4.6,7.8-9.6-3-9.3-7.7-9.3" transform="translate(-14.3 -2.8)" fill="#725641"/><path d="M257.6,43.8a8.6,8.6,0,0,0,8.8,8.6,14.6,14.6,0,0,0,10-3.6l4.2,4.3c-3.8,3.2-7.9,5.6-14.2,5.6-8.8,0-15.6-6-15.6-16.1s6.3-15.4,15.3-15.4,15,6.9,15,16.6Zm8.2-10.6c-3.9,0-7.1,2.1-7.9,5.4h15.8c-1.1-3.4-4.1-5.4-7.9-5.4" transform="translate(-14.3 -2.8)" fill="#725641"/><path d="M682.2,57.8V54.5a10.1,10.1,0,0,1-8.5,4.2c-7.7,0-13.2-7.3-13.2-16s5.5-15.5,13.2-15.5a10.2,10.2,0,0,1,8.5,4V5.5H689V57.8Zm-7.1-24.3c-4.9,0-7.6,4.6-7.6,9.5s2.7,9.4,7.5,9.4,7.7-4.6,7.7-9.6-2.9-9.3-7.6-9.3" transform="translate(-14.3 -2.8)" fill="#725641"/><path d="M702.6,43.8a8.6,8.6,0,0,0,8.8,8.6c4.7,0,7.2-1.5,10-3.6l4.1,4.3c-3.7,3.2-7.9,5.6-14.2,5.6-8.7,0-15.5-6-15.5-16.1s6.3-15.4,15.2-15.4,15,6.9,15,16.6Zm8.2-10.6c-3.9,0-7.1,2.1-7.9,5.4h15.7c-1-3.4-4-5.4-7.8-5.4" transform="translate(-14.3 -2.8)" fill="#725641"/><path d="M768,58.7c-12.7,0-25.6-10.4-25.6-27S753.3,4.6,768.3,4.6c9.5,0,15.2,3.3,19.4,8.2l-5.3,4.7a18.7,18.7,0,0,0-13.9-5.8c-10.2,0-18.7,7.9-18.7,19.8,0,13.5,10.4,20.2,18.4,20.2a19.8,19.8,0,0,0,15.3-7.3l5.2,4.5c-4,5.6-11.5,9.8-20.7,9.8" transform="translate(-14.3 -2.8)" fill="#725641"/><path d="M809.2,58.7c-8.8,0-15.2-6.2-15.2-16,0-8,5.7-15.5,15.1-15.5a15,15,0,0,1,15.4,15.2c0,9.1-6.2,16.3-15.3,16.3m-.1-25.2c-5.1,0-8.1,4.1-8.1,9.2s3,9.7,8,9.7,8.6-4.2,8.6-9.5-3.3-9.4-8.5-9.4" transform="translate(-14.3 -2.8)" fill="#725641"/><rect x="817.1" y="2.7" width="6.8" height="52.34" fill="#725641"/><path d="M860.2,58.7c-8.8,0-15.2-6.2-15.2-16,0-8,5.7-15.5,15-15.5a15.1,15.1,0,0,1,15.5,15.2c0,9.1-6.2,16.3-15.3,16.3M860,33.5c-5.1,0-8.1,4.1-8.1,9.2s3,9.7,8.1,9.7,8.6-4.2,8.6-9.5-3.3-9.4-8.6-9.4" transform="translate(-14.3 -2.8)" fill="#725641"/><path d="M919.6,57.8v-19c0-3.7-2.2-5.3-5.2-5.3a6.5,6.5,0,0,0-6.6,6.6V57.8H901v-19c0-3.7-2.4-5.3-5.4-5.3a6.4,6.4,0,0,0-6.5,6.6V57.8h-6.8V28h6.8v2.9a10.4,10.4,0,0,1,7.9-3.7c4.8,0,7.5,1.6,9.4,4.5,2.3-3.1,6.5-4.5,9.6-4.5,7.8,0,10.4,4.9,10.4,10.9V57.8Z" transform="translate(-14.3 -2.8)" fill="#725641"/><path d="M949.6,58.7a10.5,10.5,0,0,1-8.5-4.4v3.5h-6.8V5.5h6.8V31.6a10.3,10.3,0,0,1,8.5-4.4c7.7,0,13.2,6.5,13.2,15.3s-5.5,16.2-13.2,16.2m-1.5-25.2c-4.5,0-7.6,4.6-7.6,9.3s3.1,9.6,7.6,9.6,7.7-4.3,7.7-9.6-2.6-9.3-7.7-9.3" transform="translate(-14.3 -2.8)" fill="#725641"/><path d="M969.6,13h6.8v8.2h-6.8Zm0,15h6.8V57.8h-6.8Z" transform="translate(-14.3 -2.8)" fill="#725641"/><path d="M1003.3,57.8V55.7a14.4,14.4,0,0,1-9.3,3c-7.5,0-11.2-4.5-11.2-10,0-7.1,7.1-10.9,16.2-10.9h4.5c0-3.6-1.5-4.9-6-4.9a22.1,22.1,0,0,0-9.1,1.6L986,29.4c2.8-1.6,7.4-2.2,10.7-2.2,8.4,0,13.4,2.4,13.4,8.8V57.8Zm0-14.5h-1.9c-7.7,0-11.6,1.6-11.6,5.4s3.2,4,6.1,4a11,11,0,0,0,7.4-2.4Z" transform="translate(-14.3 -2.8)" fill="#725641"/><path d="M491.7,57.8c-15.4,0-26.5-10.9-26.5-27.9,0-14,10-27.1,26.3-27.1s27,12.5,27,26.6c0,15.8-10.9,28.4-26.8,28.4m-.2-44c-8.9,0-14.2,7.2-14.2,16.1,0,10.4,5.3,16.9,14,16.9,10.7,0,15-7.2,15-16.6s-5.7-16.4-14.8-16.4" transform="translate(-14.3 -2.8)" fill="#725641"/><path d="M660,135.8a5.6,5.6,0,1,0-5.6,5.6A5.6,5.6,0,0,0,660,135.8Z" transform="translate(-14.3 -2.8)" fill="#725641"/><path d="M654.4,146.6a20.3,20.3,0,0,0-13.8,5.8c-1.2,1.2-2.5,2.1-3.6,1.1s-1.2-1.5.2-3a23.3,23.3,0,0,1,34.4,0c1.4,1.5,1,2.4.3,3s-2.4.1-3.7-1.1A20.1,20.1,0,0,0,654.4,146.6Z" transform="translate(-14.3 -2.8)" fill="#725641"/><path d="M670.8,154.2a4.3,4.3,0,0,1-2.7-1.7c-.6-.5-5.9-5.6-13.7-5.6a20.5,20.5,0,0,0-13.6,5.6c-.9.9-1.8,1.7-2.8,1.7a2.1,2.1,0,0,1-1.2-.5,2,2,0,0,1-.8-1.3,3.1,3.1,0,0,1,1.1-2.1c5-5.1,10.8-7.7,17.3-7.7s12.3,2.6,17.4,7.7a2.9,2.9,0,0,1,1,2.1,1.7,1.7,0,0,1-.8,1.3A1.8,1.8,0,0,1,670.8,154.2Zm-16.4-7.8a21,21,0,0,1,14,5.8,4,4,0,0,0,2.4,1.5,1.8,1.8,0,0,0,1.5-1.4,2.6,2.6,0,0,0-.9-1.6c-4.9-5-10.6-7.6-17-7.6s-12.1,2.6-17,7.6a2.6,2.6,0,0,0-.9,1.6,1.5,1.5,0,0,0,.6,1,1.2,1.2,0,0,0,.9.4,4,4,0,0,0,2.4-1.5A21,21,0,0,1,654.4,146.4Z" transform="translate(-14.3 -2.8)" fill="#725641"/><path d="M623.2,153.2a5.6,5.6,0,1,0,5.6,5.6A5.6,5.6,0,0,0,623.2,153.2Z" transform="translate(-14.3 -2.8)" fill="#725641"/><path d="M633.3,158.8a20.6,20.6,0,0,0,5.7,13.8c1.2,1.3,2.2,2.5,1.2,3.7s-1.6,1.1-3-.3a23.1,23.1,0,0,1,0-34.4c1.4-1.4,2.4-1,3-.3s0,2.4-1.2,3.7A20.6,20.6,0,0,0,633.3,158.8Z" transform="translate(-14.3 -2.8)" fill="#725641"/><path d="M638.9,177.2a3.2,3.2,0,0,1-1.9-1c-5.1-5.1-7.7-10.9-7.7-17.4s2.6-12.3,7.7-17.3c1.3-1.3,2.5-1.4,3.4-.3s-.4,3.1-1.2,4a19.9,19.9,0,0,0-5.7,13.6,20.5,20.5,0,0,0,5.7,13.7c.8.8,2.4,2.4,1.2,3.9A2.1,2.1,0,0,1,638.9,177.2Zm0-36.3a2.6,2.6,0,0,0-1.6.9c-5,4.9-7.5,10.6-7.5,17s2.5,12.1,7.5,17c1.1,1.1,1.9,1.2,2.7.3s.1-2-1.2-3.3a19.8,19.8,0,0,1,0-28c1.3-1.3,2-2.3,1.2-3.3A1.4,1.4,0,0,0,638.9,140.9Z" transform="translate(-14.3 -2.8)" fill="#725641"/><path d="M639.5,191.6a5.6,5.6,0,1,0,5.6-5.5A5.6,5.6,0,0,0,639.5,191.6Z" transform="translate(-14.3 -2.8)" fill="#725641"/><path d="M645.1,180.8a20.1,20.1,0,0,0,13.8-5.7c1.3-1.2,2.5-2.1,3.7-1.1s1.1,1.5-.3,3a23.3,23.3,0,0,1-34.4,0c-1.4-1.5-1-2.4-.3-3s2.5-.1,3.7,1.1A20.1,20.1,0,0,0,645.1,180.8Z" transform="translate(-14.3 -2.8)" fill="#725641"/><path d="M645.1,184.9c-6.5,0-12.3-2.6-17.3-7.7a2.9,2.9,0,0,1-1.1-2.1,2,2,0,0,1,.8-1.3,1.6,1.6,0,0,1,1.2-.5c1,0,1.9.8,2.8,1.6a19.9,19.9,0,0,0,13.6,5.7,20.5,20.5,0,0,0,13.7-5.7,4.3,4.3,0,0,1,2.7-1.6,1.6,1.6,0,0,1,1.2.5,1.7,1.7,0,0,1,.8,1.3,3.1,3.1,0,0,1-1,2.1C657.4,182.3,651.6,184.9,645.1,184.9Zm-16.4-11.1a1.2,1.2,0,0,0-.9.4,1.2,1.2,0,0,0-.6.9,2.6,2.6,0,0,0,.9,1.7c4.9,5,10.6,7.6,17,7.6s12.1-2.6,17-7.6a2.6,2.6,0,0,0,.9-1.7,1.2,1.2,0,0,0-.6-.9,1.2,1.2,0,0,0-.9-.4,4,4,0,0,0-2.4,1.5,19.8,19.8,0,0,1-28,0A4,4,0,0,0,628.7,173.8Z" transform="translate(-14.3 -2.8)" fill="#725641"/><path d="M676.3,174.3a5.6,5.6,0,0,0,0-11.2,5.6,5.6,0,1,0,0,11.2Z" transform="translate(-14.3 -2.8)" fill="#725641"/><path d="M666.2,168.7c0-7.4-4.5-12.6-5.7-13.9s-2.2-2.4-1.2-3.6,1.6-1.1,3.1.3a23.3,23.3,0,0,1,0,34.4c-1.5,1.4-2.4,1-3.1.2s0-2.4,1.2-3.6A20.9,20.9,0,0,0,666.2,168.7Z" transform="translate(-14.3 -2.8)" fill="#725641"/><path d="M660.6,187.1a1.9,1.9,0,0,1-1.4-.8c-1.3-1.5.3-3.1,1.1-4a20.2,20.2,0,0,0,5.7-13.6,20.5,20.5,0,0,0-5.7-13.7c-.8-.8-2.4-2.4-1.1-3.9s2-1,3.3.2c5.2,5,7.8,10.9,7.8,17.4s-2.6,12.3-7.8,17.3A2.9,2.9,0,0,1,660.6,187.1Zm0-36.3a1.5,1.5,0,0,0-1.1.6c-.8.9-.1,2,1.2,3.3a19.8,19.8,0,0,1,0,28c-1.3,1.3-2,2.3-1.2,3.3s1.6.7,2.7-.3a23.3,23.3,0,0,0,7.5-17c0-6.4-2.5-12.1-7.5-17A2.4,2.4,0,0,0,660.6,150.8Z" transform="translate(-14.3 -2.8)" fill="#725641"/><path d="M662.4,164l-7.7-11.4a3.5,3.5,0,0,0-4.9-.9l-11.3,7.7a3.6,3.6,0,0,0-1,4.9l7.7,11.4a3.5,3.5,0,0,0,4.9.9l11.4-7.7A3.5,3.5,0,0,0,662.4,164Z" transform="translate(-14.3 -2.8)" fill="#725641"/><path d="M705.7,159.5v2.6a4.7,4.7,0,0,1-3,1.1,4.1,4.1,0,0,1-3.9-2.6,15.7,15.7,0,0,1-1.4-7.3,17,17,0,0,1,1.4-7.5,4.2,4.2,0,0,1,3.9-2.7,5,5,0,0,1,2.7,1v2.6a3.5,3.5,0,0,0-2.5-1.2c-1,0-1.7.6-2.2,1.8a19,19,0,0,0-.7,5.9,19.9,19.9,0,0,0,.7,5.9,2.5,2.5,0,0,0,2.3,1.8A5,5,0,0,0,705.7,159.5Z" transform="translate(-14.3 -2.8)" fill="#725641"/><path d="M713.8,159.9v2.3a4,4,0,0,1-2.7,1.1,3.6,3.6,0,0,1-3.1-1.8,9.7,9.7,0,0,1-1.1-5.1,11.3,11.3,0,0,1,1-5,2.9,2.9,0,0,1,2.6-1.8c2.4,0,3.6,2.5,3.5,7.4h-4.8c0,2.8.8,4.2,2.3,4.2A2.8,2.8,0,0,0,713.8,159.9Zm-4.6-4.6h2.5c0-2.5-.4-3.7-1.3-3.7S709.2,152.8,709.2,155.3Z" transform="translate(-14.3 -2.8)" fill="#725641"/><path d="M716.2,163V150h2.3v1.4h.1a2.6,2.6,0,0,1,2.4-1.6,2.5,2.5,0,0,1,2.1,1,4.7,4.7,0,0,1,.7,2.8V163h-2.2v-9.3c0-1.3-.5-1.9-1.3-1.9a1.5,1.5,0,0,0-1.2.7l-.6.8V163Z" transform="translate(-14.3 -2.8)" fill="#725641"/><path d="M731.3,160.8v2a4.5,4.5,0,0,1-2,.5c-1.6,0-2.4-.9-2.4-2.9V152h-1.5v-.2a46.3,46.3,0,0,0,3.5-5.2h.2V150h2.2v2h-2.2v7.4a4.1,4.1,0,0,0,.2,1.4.9.9,0,0,0,.7.3Z" transform="translate(-14.3 -2.8)" fill="#725641"/><path d="M732.8,163V150h2.3v3.5h0a12.4,12.4,0,0,1,1.2-3,1.3,1.3,0,0,1,1.2-.7,1.6,1.6,0,0,1,1.2.4v2.3a2.3,2.3,0,0,0-1.1-.3c-.7,0-1.3.6-1.7,1.9a10.1,10.1,0,0,0-.7,3.7V163Z" transform="translate(-14.3 -2.8)" fill="#725641"/><path d="M743.4,163.3a3.3,3.3,0,0,1-3-1.8,11.9,11.9,0,0,1,0-10,3.2,3.2,0,0,1,3-1.9,3.4,3.4,0,0,1,3,1.9,11.9,11.9,0,0,1,0,10A3.5,3.5,0,0,1,743.4,163.3Zm0-11.5c-1.2,0-1.7,1.6-1.7,4.7s.5,4.6,1.7,4.6,1.7-1.5,1.7-4.6S744.5,151.8,743.4,151.8Z" transform="translate(-14.3 -2.8)" fill="#725641"/><path d="M753.8,163V143.4h2.1l4.3,12.1h.1V143.4h2.3V163h-2.1l-4.3-12.2h0V163Z" transform="translate(-14.3 -2.8)" fill="#725641"/><path d="M773.5,160.6v1.7a3.6,3.6,0,0,1-1.8.9c-.9,0-1.4-.5-1.7-1.6a3.4,3.4,0,0,1-2.5,1.7,2.1,2.1,0,0,1-1.8-1,3.5,3.5,0,0,1-.7-2.3,3.5,3.5,0,0,1,1-2.6,24.5,24.5,0,0,1,3.9-2.7v-1.2c0-1.1-.4-1.7-1.3-1.7s-2.1.7-3.3,2.1v-2.6a5.2,5.2,0,0,1,3.5-1.7,3.3,3.3,0,0,1,2.4,1,3,3,0,0,1,1,2.5v7.3c0,.5.1.8.4.8Zm-3.6-.9v-3.4c-1.8,1.1-2.7,2.2-2.7,3.4a1.5,1.5,0,0,0,.3,1,.9.9,0,0,0,.8.4,1.4,1.4,0,0,0,1.1-.6A2.8,2.8,0,0,0,769.9,159.7Z" transform="translate(-14.3 -2.8)" fill="#725641"/><path d="M781.4,160.4v2.2a3.6,3.6,0,0,1-2.2.7,3.8,3.8,0,0,1-3.3-1.9,8.3,8.3,0,0,1-1.4-4.8,9.2,9.2,0,0,1,1.3-5,4,4,0,0,1,3.4-2,5.3,5.3,0,0,1,2,.5v2.3a3.2,3.2,0,0,0-1.7-.6,2.1,2.1,0,0,0-1.9,1.3,6.6,6.6,0,0,0-.7,3.4,5.7,5.7,0,0,0,.8,3.4,2.4,2.4,0,0,0,2.1,1.2A2.5,2.5,0,0,0,781.4,160.4Z" transform="translate(-14.3 -2.8)" fill="#725641"/><path d="M784,145.8a1.8,1.8,0,0,1-.9-.4,1.3,1.3,0,0,1-.4-1,1.2,1.2,0,0,1,.4-.9,1.8,1.8,0,0,1,.9-.4,1.8,1.8,0,0,1,1,.4,1.8,1.8,0,0,1,.4.9,1.4,1.4,0,0,1-1.4,1.4ZM782.9,163V150h2.3v13Z" transform="translate(-14.3 -2.8)" fill="#725641"/><path d="M791.4,163.3a3.3,3.3,0,0,1-3-1.8,11.9,11.9,0,0,1,0-10,3.2,3.2,0,0,1,3-1.9,3.2,3.2,0,0,1,2.9,1.9,11.9,11.9,0,0,1,0,10A3.3,3.3,0,0,1,791.4,163.3Zm-.1-11.5c-1.1,0-1.7,1.6-1.7,4.7s.6,4.6,1.8,4.6,1.7-1.5,1.7-4.6S792.5,151.8,791.3,151.8Z" transform="translate(-14.3 -2.8)" fill="#725641"/><path d="M797.5,163V150h2.3v1.4h.1a2.6,2.6,0,0,1,4.5-.6,4.7,4.7,0,0,1,.7,2.8V163h-2.3v-9.3c0-1.3-.4-1.9-1.2-1.9a1.4,1.4,0,0,0-1.2.7l-.6.8V163Z" transform="translate(-14.3 -2.8)" fill="#725641"/><path d="M815.6,160.6v1.7a3,3,0,0,1-1.8.9c-.8,0-1.4-.5-1.6-1.6-.9,1.1-1.7,1.7-2.5,1.7a2.1,2.1,0,0,1-1.8-1,3.6,3.6,0,0,1-.8-2.3,3.6,3.6,0,0,1,1.1-2.6,20.5,20.5,0,0,1,3.9-2.7v-1.2c0-1.1-.5-1.7-1.4-1.7s-2,.7-3.3,2.1v-2.6a5.5,5.5,0,0,1,3.5-1.7,3.3,3.3,0,0,1,2.5,1,3.4,3.4,0,0,1,1,2.5v7.3c0,.5.1.8.3.8S815.2,161,815.6,160.6Zm-3.5-.9v-3.4c-1.8,1.1-2.7,2.2-2.7,3.4a1.5,1.5,0,0,0,.3,1,.9.9,0,0,0,.8.4,1.4,1.4,0,0,0,1.1-.6A2.8,2.8,0,0,0,812.1,159.7Z" transform="translate(-14.3 -2.8)" fill="#725641"/><path d="M816.9,163V143.4h2.3V163Z" transform="translate(-14.3 -2.8)" fill="#725641"/><path d="M718.5,173.5l2.2-5.4h1.6v14.8h-1.8V172.2h-.1l-1.8,4.8h-.4l-1.8-4.8h-.1l.2,10.7h-1.9V168.1h1.6Z" transform="translate(-14.3 -2.8)" fill="#725641"/><path d="M729.2,180.6v1.7a3,3,0,0,1-2,.8,2.6,2.6,0,0,1-2.3-1.3,8,8,0,0,1-.8-3.8,7.8,7.8,0,0,1,.7-3.8,2.3,2.3,0,0,1,2-1.4c1.8,0,2.7,1.9,2.6,5.6h-3.6c0,2.1.6,3.1,1.8,3.1A1.9,1.9,0,0,0,729.2,180.6Zm-3.4-3.5h1.9c0-1.9-.3-2.8-1-2.8S725.8,175.2,725.8,177.1Z" transform="translate(-14.3 -2.8)" fill="#725641"/><path d="M740.9,182.9h-1.8v-7c0-1-.3-1.4-.9-1.4s-.9.3-1.4,1.1v7.3h-1.7v-7c0-1-.3-1.4-.9-1.4s-.9.3-1.4,1.1v7.3h-1.7v-9.8h1.7v1h.1a1.9,1.9,0,0,1,1.8-1.2,2.3,2.3,0,0,1,2,1.5,3.5,3.5,0,0,1,.9-1.1,1.4,1.4,0,0,1,1.1-.4,2.3,2.3,0,0,1,1.6.8,3.3,3.3,0,0,1,.6,2.1Z" transform="translate(-14.3 -2.8)" fill="#725641"/><path d="M745.3,183.1a2.4,2.4,0,0,1-2.2-1.3,7.2,7.2,0,0,1-.8-3.8,6.9,6.9,0,0,1,.8-3.8,2.5,2.5,0,0,1,2.2-1.4,2.7,2.7,0,0,1,2.3,1.4,8,8,0,0,1,.8,3.8,8.2,8.2,0,0,1-.8,3.8A2.6,2.6,0,0,1,745.3,183.1Zm0-8.6c-.8,0-1.3,1.1-1.3,3.5s.5,3.5,1.4,3.5,1.2-1.2,1.2-3.5S746.2,174.5,745.3,174.5Z" transform="translate(-14.3 -2.8)" fill="#725641"/><path d="M750,182.9v-9.8h1.8v2.6h0a5.9,5.9,0,0,1,.9-2.2,1,1,0,0,1,.9-.6l.9.3V175a1.3,1.3,0,0,0-.8-.3c-.5,0-1,.5-1.3,1.5a7.2,7.2,0,0,0-.5,2.8v3.9Z" transform="translate(-14.3 -2.8)" fill="#725641"/><path d="M756.2,169.9a1,1,0,0,1,0-2,1.1,1.1,0,0,1,.7.3,1,1,0,0,1,0,1.4A1.1,1.1,0,0,1,756.2,169.9Zm-.9,13v-9.8H757v9.8Z" transform="translate(-14.3 -2.8)" fill="#725641"/><path d="M765,181.1v1.3a3,3,0,0,1-1.4.7c-.6,0-1-.4-1.2-1.3a2.5,2.5,0,0,1-1.9,1.3,1.6,1.6,0,0,1-1.3-.7,2.7,2.7,0,0,1-.6-1.7,2.8,2.8,0,0,1,.8-2,15.1,15.1,0,0,1,2.9-2v-1c0-.8-.3-1.2-1-1.2s-1.5.5-2.5,1.6v-2a3.8,3.8,0,0,1,2.6-1.3,2.9,2.9,0,0,1,1.9.7,2.5,2.5,0,0,1,.7,1.9V181c0,.3.1.5.3.5Zm-2.7-.7v-2.6c-1.3.9-2,1.7-2,2.6a1.9,1.9,0,0,0,.2.8.9.9,0,0,0,.6.3,1,1,0,0,0,.8-.5C762.2,180.7,762.3,180.5,762.3,180.4Z" transform="translate(-14.3 -2.8)" fill="#725641"/><path d="M769.3,182.9V168.1h1.8v6.5H774v-6.5h1.9v14.8H774v-6.5h-2.9v6.5Z" transform="translate(-14.3 -2.8)" fill="#725641"/><path d="M778.9,169.9a1,1,0,1,1,.7-.3A.9.9,0,0,1,778.9,169.9Zm-.9,13v-9.8h1.8v9.8Z" transform="translate(-14.3 -2.8)" fill="#725641"/><path d="M781.2,182.3v-1.9c.7.7,1.2,1.1,1.7,1.1a.8.8,0,0,0,.6-.2.9.9,0,0,0,.3-.6,4.4,4.4,0,0,0-1-2.2,18.9,18.9,0,0,1-1.2-2.1,3.2,3.2,0,0,1-.2-1.3,2.2,2.2,0,0,1,.5-1.6,2,2,0,0,1,1.6-.7,2.7,2.7,0,0,1,1.6.6v1.7a2.5,2.5,0,0,0-1.5-.7.6.6,0,0,0-.7.7,5.1,5.1,0,0,0,1,2,11.9,11.9,0,0,1,1.3,2.2,3.5,3.5,0,0,1,.3,1.3,2.4,2.4,0,0,1-.7,1.8,2,2,0,0,1-1.6.7A2.9,2.9,0,0,1,781.2,182.3Z" transform="translate(-14.3 -2.8)" fill="#725641"/><path d="M790.7,181.2v1.6l-1.5.3c-1.2,0-1.8-.7-1.8-2.2v-6.3h-1.1v-.2c.8-1,1.7-2.3,2.7-3.8h.1v2.5h1.6v1.5h-1.6v5.6a2.2,2.2,0,0,0,.2,1,.5.5,0,0,0,.5.3Z" transform="translate(-14.3 -2.8)" fill="#725641"/><path d="M794.5,183.1a2.5,2.5,0,0,1-2.2-1.3,8.2,8.2,0,0,1-.8-3.8,8,8,0,0,1,.8-3.8,2.6,2.6,0,0,1,2.2-1.4,2.7,2.7,0,0,1,2.3,1.4,8,8,0,0,1,.8,3.8,8.2,8.2,0,0,1-.8,3.8A2.6,2.6,0,0,1,794.5,183.1Zm0-8.6c-.8,0-1.2,1.1-1.2,3.5s.4,3.5,1.3,3.5,1.2-1.2,1.2-3.5S795.4,174.5,794.5,174.5Zm-.7-3,.5-3.2h2.1l-1.6,3.2Z" transform="translate(-14.3 -2.8)" fill="#725641"/><path d="M799.2,182.9v-9.8H801v2.6h0a8.5,8.5,0,0,1,.9-2.2,1,1,0,0,1,.9-.6l.9.3V175a1.3,1.3,0,0,0-.8-.3c-.5,0-1,.5-1.3,1.5a7.2,7.2,0,0,0-.5,2.8v3.9Z" transform="translate(-14.3 -2.8)" fill="#725641"/><path d="M805.4,169.9a1,1,0,1,1,.7-.3A.9.9,0,0,1,805.4,169.9Zm-.9,13v-9.8h1.7v9.8Z" transform="translate(-14.3 -2.8)" fill="#725641"/><path d="M813.1,180.9v1.7a2.8,2.8,0,0,1-1.7.5,2.9,2.9,0,0,1-2.5-1.4,6.1,6.1,0,0,1-1-3.6,6.3,6.3,0,0,1,1-3.8,2.9,2.9,0,0,1,2.5-1.5,2.8,2.8,0,0,1,1.5.4v1.7a2.4,2.4,0,0,0-1.2-.4,1.6,1.6,0,0,0-1.5.9,4.8,4.8,0,0,0-.6,2.6,4.4,4.4,0,0,0,.6,2.5,1.8,1.8,0,0,0,1.6,1A2.2,2.2,0,0,0,813.1,180.9Z" transform="translate(-14.3 -2.8)" fill="#725641"/><path d="M820.2,181.1v1.3a3,3,0,0,1-1.4.7c-.6,0-1-.4-1.2-1.3-.7.9-1.3,1.3-1.9,1.3a1.6,1.6,0,0,1-1.3-.7,2.7,2.7,0,0,1-.6-1.7,2.8,2.8,0,0,1,.8-2,15.1,15.1,0,0,1,2.9-2v-1c0-.8-.3-1.2-1-1.2s-1.5.5-2.5,1.6v-2a3.8,3.8,0,0,1,2.6-1.3,2.9,2.9,0,0,1,1.9.7,2.5,2.5,0,0,1,.7,1.9V181c0,.3.1.5.3.5Zm-2.7-.7v-2.6c-1.3.9-2,1.7-2,2.6a1.9,1.9,0,0,0,.2.8.9.9,0,0,0,.6.3,1,1,0,0,0,.8-.5C817.4,180.7,817.5,180.5,817.5,180.4Z" transform="translate(-14.3 -2.8)" fill="#725641"/><path d="M703.3,183h-1.7v-.8h-.1a1.8,1.8,0,0,1-1.5.9,2.3,2.3,0,0,1-2-1.3,7.5,7.5,0,0,1-.8-3.7,8.1,8.1,0,0,1,.8-3.7,2.3,2.3,0,0,1,2.1-1.4,1.7,1.7,0,0,1,1.5.8v-5.5h1.7Zm-1.7-2.5v-4.9c-.2-.7-.6-1-1.1-1s-.8.3-1.1.9a6.7,6.7,0,0,0-.4,2.7c0,2.1.5,3.2,1.4,3.2a.9.9,0,0,0,.8-.4Z" transform="translate(-14.3 -2.8)" fill="#725641"/><path d="M710,180.7v1.7a2.8,2.8,0,0,1-2,.9,2.5,2.5,0,0,1-2.3-1.4,6.7,6.7,0,0,1-.8-3.8,8.1,8.1,0,0,1,.7-3.8,2.1,2.1,0,0,1,2-1.3c1.8,0,2.6,1.8,2.6,5.5h-3.6c0,2.1.6,3.2,1.7,3.2A2.2,2.2,0,0,0,710,180.7Zm-3.4-3.5h1.9c0-1.8-.4-2.7-1-2.7S706.6,175.4,706.6,177.2Z" transform="translate(-14.3 -2.8)" fill="#725641"/><path d="M689,186a.5.5,0,0,1-.5-.5V143.1a.5.5,0,0,1,.5-.5.5.5,0,0,1,.5.5v42.4A.5.5,0,0,1,689,186Z" transform="translate(-14.3 -2.8)" fill="#725641"/><path d="M433.7,149.7a5,5,0,0,1,0,6,4.1,4.1,0,0,1-3,1.1h-3.1v-8.2h3.1A4.1,4.1,0,0,1,433.7,149.7Zm-1.3,5a3.6,3.6,0,0,0,0-4,2.1,2.1,0,0,0-1.8-.7h-1.3v5.4h1.3A2.1,2.1,0,0,0,432.4,154.7Z" transform="translate(-14.3 -2.8)" fill="#725641"/><path d="M441.9,149.3a2.6,2.6,0,0,1,.8,1.9,2.4,2.4,0,0,1-.8,1.9,3.1,3.1,0,0,1-2.2.7H438v3h-1.7v-8.2h3.4A3.1,3.1,0,0,1,441.9,149.3Zm-1.3,2.9a1.5,1.5,0,0,0,.4-1,1.3,1.3,0,0,0-.4-.9,1.7,1.7,0,0,0-1.2-.3H438v2.5h1.4A1.7,1.7,0,0,0,440.6,152.2Z" transform="translate(-14.3 -2.8)" fill="#725641"/><path d="M449,148.9a2.7,2.7,0,0,1,1.4,1.2l-1.1,1.1a2.2,2.2,0,0,0-.9-1,2.5,2.5,0,0,0-1.3-.3,2.1,2.1,0,0,0-1.2.3.8.8,0,0,0,0,1.4l1.5.4,1.8.5a2.4,2.4,0,0,1,.9.8,2.1,2.1,0,0,1,.3,1.2,2,2,0,0,1-.4,1.3,3.6,3.6,0,0,1-1.2.8,4.7,4.7,0,0,1-1.7.3,4.6,4.6,0,0,1-2.2-.4,2.6,2.6,0,0,1-1.4-1.1l1-1.2a3.1,3.1,0,0,0,1,1,3.3,3.3,0,0,0,1.5.3l1.2-.2a.8.8,0,0,0,.4-.7.5.5,0,0,0-.4-.6,2.8,2.8,0,0,0-1.3-.4L445,153a2.7,2.7,0,0,1-1-.8,2,2,0,0,1-.3-1.1,2.3,2.3,0,0,1,.4-1.4,3.8,3.8,0,0,1,1.2-.9,4.8,4.8,0,0,1,1.8-.3A3.8,3.8,0,0,1,449,148.9Z" transform="translate(-14.3 -2.8)" fill="#725641"/><path d="M433.1,161.7a3.7,3.7,0,0,1,1,2.8,3.5,3.5,0,0,1-3.8,3.8h-2.7v-7.6h2.7A3.6,3.6,0,0,1,433.1,161.7Zm-.9,4.8a2.8,2.8,0,0,0,.6-2,3,3,0,0,0-.6-2,2.5,2.5,0,0,0-1.9-.7h-1.4v5.5h1.4A2.6,2.6,0,0,0,432.2,166.5Z" transform="translate(-14.3 -2.8)" fill="#725641"/><path d="M440.7,165.9h-4.2a2.2,2.2,0,0,0,.5,1.2,2.1,2.1,0,0,0,1.2.4l.9-.2.5-.6,1,.4a2.3,2.3,0,0,1-2.4,1.3,2.7,2.7,0,0,1-2.2-.8,2.9,2.9,0,0,1-.7-2.2,3.1,3.1,0,0,1,.7-2.2,2.9,2.9,0,0,1,2.1-.8,2.8,2.8,0,0,1,2,.8,3.3,3.3,0,0,1,.7,2.1C440.8,165.5,440.7,165.7,440.7,165.9Zm-3.7-2.1a1.9,1.9,0,0,0-.5,1.1h3.1a2.2,2.2,0,0,0-.5-1.1,1.3,1.3,0,0,0-1-.4A1.4,1.4,0,0,0,437,163.8Z" transform="translate(-14.3 -2.8)" fill="#725641"/><path d="M447.1,163.2a3.1,3.1,0,0,1,.7,2.2,2.9,2.9,0,0,1-.7,2.2,2.1,2.1,0,0,1-1.9.8l-1.1-.2a1.8,1.8,0,0,1-.7-.8v3.3h-1.3v-8.2h1.1v1.1a1.8,1.8,0,0,1,.7-.8,1.9,1.9,0,0,1,1.2-.4A2.4,2.4,0,0,1,447.1,163.2Zm-1,3.7a2.1,2.1,0,0,0,.5-1.5,2,2,0,0,0-.5-1.4,1.3,1.3,0,0,0-1.1-.6,1.7,1.7,0,0,0-1.2.5,2.5,2.5,0,0,0-.4,1.3v.5a2.8,2.8,0,0,0,.4,1.3,1.6,1.6,0,0,0,1.2.4A1.2,1.2,0,0,0,446.1,166.9Z" transform="translate(-14.3 -2.8)" fill="#725641"/><path d="M454.6,167.5v.8h-.7a1.1,1.1,0,0,1-.8-.2.9.9,0,0,1-.4-.6,1.4,1.4,0,0,1-.7.6,2.5,2.5,0,0,1-1.2.2,2.1,2.1,0,0,1-1.4-.4,1.3,1.3,0,0,1-.5-1.1,1.4,1.4,0,0,1,.6-1.1,3.4,3.4,0,0,1,1.7-.7l1.4-.2v-.4a1,1,0,0,0-1.1-1.1,1.4,1.4,0,0,0-1.5,1l-1-.5a1.9,1.9,0,0,1,.9-1.1,3.3,3.3,0,0,1,1.5-.4,2.4,2.4,0,0,1,1.8.6,1.8,1.8,0,0,1,.7,1.5v2.6a.4.4,0,0,0,.1.3h.7Zm-2.5-.3a.9.9,0,0,0,.4-.8v-.7l-1.2.3a1.2,1.2,0,0,0-.9.3.5.5,0,0,0-.3.5.6.6,0,0,0,.2.5l.7.2A2.3,2.3,0,0,0,452.1,167.2Z" transform="translate(-14.3 -2.8)" fill="#725641"/><path d="M459.2,162.5l-.2,1.2-.7-.2-.7.2-.5.6a1.7,1.7,0,0,0-.3,1v3h-1.2v-5.8h1.1v1.1a1.7,1.7,0,0,1,1.8-1.2Z" transform="translate(-14.3 -2.8)" fill="#725641"/><path d="M463.7,167.9l-.7.4h-.9a1.6,1.6,0,0,1-1.2-.4c-.4-.2-.5-.6-.5-1.2v-3.3h-1.1v-1h1.1v-1.3l1.2-.3v1.6h2v1h-2v3.1a.8.8,0,0,0,.2.6l.6.2a1.3,1.3,0,0,0,1-.4Z" transform="translate(-14.3 -2.8)" fill="#725641"/><path d="M470.1,167.5v.8h-.7a1.1,1.1,0,0,1-.8-.2.9.9,0,0,1-.4-.6,1.7,1.7,0,0,1-.8.6,2,2,0,0,1-1.1.2,2.1,2.1,0,0,1-1.4-.4,1.3,1.3,0,0,1-.5-1.1,1.4,1.4,0,0,1,.6-1.1,3,3,0,0,1,1.6-.7l1.5-.2v-.4a1.1,1.1,0,0,0-.3-.8,1.2,1.2,0,0,0-.9-.3,1.5,1.5,0,0,0-1.5,1l-.9-.5a2.1,2.1,0,0,1,.8-1.1,4.2,4.2,0,0,1,1.6-.4,2.6,2.6,0,0,1,1.8.6,1.8,1.8,0,0,1,.6,1.5v2.9h.8Zm-2.6-.3a.8.8,0,0,0,.5-.8v-.7l-1.2.3a1.2,1.2,0,0,0-.9.3.5.5,0,0,0-.3.5c0,.3,0,.4.2.5l.6.2A1.8,1.8,0,0,0,467.5,167.2Z" transform="translate(-14.3 -2.8)" fill="#725641"/><path d="M479.1,162.7a1.8,1.8,0,0,1,.8.7,2.1,2.1,0,0,1,.3,1.2v3.7h-1.3v-3.5a1.3,1.3,0,0,0-.3-1,1.2,1.2,0,0,0-.8-.4,1.4,1.4,0,0,0-1.1.5,1.7,1.7,0,0,0-.4,1.3v3.1H475v-3.5a1.3,1.3,0,0,0-.3-1,1.3,1.3,0,0,0-.9-.4l-.7.2-.6.6a3,3,0,0,0-.2,1v3.1h-1.2v-5.8h1.1v1a3,3,0,0,1,.8-.8,2.3,2.3,0,0,1,1.1-.3l1.2.3a2.4,2.4,0,0,1,.8.9,1.4,1.4,0,0,1,.8-.9,2.1,2.1,0,0,1,1.2-.3A1.9,1.9,0,0,1,479.1,162.7Z" transform="translate(-14.3 -2.8)" fill="#725641"/><path d="M487,165.9h-4.2a1.7,1.7,0,0,0,.5,1.2,2.1,2.1,0,0,0,1.1.4l1-.2.5-.6,1,.4a2.4,2.4,0,0,1-2.5,1.3,2.5,2.5,0,0,1-2.1-.8,2.9,2.9,0,0,1-.8-2.2,3.1,3.1,0,0,1,.8-2.2,2.9,2.9,0,0,1,2.1-.8,2.4,2.4,0,0,1,1.9.8,2.8,2.8,0,0,1,.7,2.1Zm-3.7-2.1a1.4,1.4,0,0,0-.5,1.1h3.1a2.2,2.2,0,0,0-.5-1.1,1.3,1.3,0,0,0-1-.4A1.2,1.2,0,0,0,483.3,163.8Z" transform="translate(-14.3 -2.8)" fill="#725641"/><path d="M493.1,163a2.1,2.1,0,0,1,.6,1.6v3.7h-1.3V165c0-1-.4-1.6-1.2-1.6a1.6,1.6,0,0,0-1.1.5,1.8,1.8,0,0,0-.5,1.4v3h-1.2v-5.8h1.1v1a1.6,1.6,0,0,1,.8-.8,2,2,0,0,1,1.1-.3A2.1,2.1,0,0,1,493.1,163Z" transform="translate(-14.3 -2.8)" fill="#725641"/><path d="M499,167.9c-.1.2-.4.3-.6.4h-.9a2,2,0,0,1-1.3-.4c-.3-.2-.4-.6-.5-1.2v-3.3h-1v-1h1v-1.3l1.3-.3v1.6h2v1h-2v3.1a.8.8,0,0,0,.2.6l.6.2a1.3,1.3,0,0,0,1-.4Z" transform="translate(-14.3 -2.8)" fill="#725641"/><path d="M504.7,163.2a3.2,3.2,0,0,1,.7,2.2,2.9,2.9,0,0,1-.7,2.2,3.2,3.2,0,0,1-4.2,0,2.6,2.6,0,0,1-.8-2.2,3.3,3.3,0,0,1,.8-2.2,3.2,3.2,0,0,1,4.2,0Zm-3.3.7a2.5,2.5,0,0,0-.5,1.5,2.1,2.1,0,0,0,.5,1.5,1.2,1.2,0,0,0,1.2.6,1.4,1.4,0,0,0,1.2-.6,2.1,2.1,0,0,0,.4-1.5,2.4,2.4,0,0,0-.4-1.5,1.7,1.7,0,0,0-1.2-.5A1.4,1.4,0,0,0,501.4,163.9Z" transform="translate(-14.3 -2.8)" fill="#725641"/><path d="M515.4,163.2a3.1,3.1,0,0,1,.7,2.2,2.9,2.9,0,0,1-.7,2.2,2.1,2.1,0,0,1-1.9.8l-1.1-.2a1.8,1.8,0,0,1-.7-.8v3.3h-1.3v-8.2h1.1v1.1a1.8,1.8,0,0,1,.7-.8,1.9,1.9,0,0,1,1.2-.4A2.4,2.4,0,0,1,515.4,163.2Zm-1,3.7a2.1,2.1,0,0,0,.5-1.5,2,2,0,0,0-.5-1.4,1.3,1.3,0,0,0-1.1-.6,1.7,1.7,0,0,0-1.2.5,2.5,2.5,0,0,0-.4,1.3v.5a2.8,2.8,0,0,0,.4,1.3,1.6,1.6,0,0,0,1.2.4A1.2,1.2,0,0,0,514.4,166.9Z" transform="translate(-14.3 -2.8)" fill="#725641"/><path d="M522.9,167.5v.8h-.7a1.1,1.1,0,0,1-.8-.2.9.9,0,0,1-.4-.6,1.4,1.4,0,0,1-.7.6,2.5,2.5,0,0,1-1.2.2,2.1,2.1,0,0,1-1.4-.4,1.3,1.3,0,0,1-.5-1.1,1.4,1.4,0,0,1,.6-1.1,3.4,3.4,0,0,1,1.7-.7l1.4-.2v-.4a1,1,0,0,0-1.1-1.1,1.4,1.4,0,0,0-1.5,1l-1-.5a1.9,1.9,0,0,1,.9-1.1,3.3,3.3,0,0,1,1.5-.4,2.4,2.4,0,0,1,1.8.6,1.8,1.8,0,0,1,.7,1.5v2.6a.4.4,0,0,0,.1.3h.7Zm-2.5-.3a.9.9,0,0,0,.4-.8v-.7l-1.2.3a1.2,1.2,0,0,0-.9.3.5.5,0,0,0-.3.5.6.6,0,0,0,.2.5l.7.2A2.3,2.3,0,0,0,520.4,167.2Z" transform="translate(-14.3 -2.8)" fill="#725641"/><path d="M527.5,162.5l-.2,1.2-.7-.2-.7.2-.5.6a1.7,1.7,0,0,0-.3,1v3h-1.2v-5.8H525v1.1a1.7,1.7,0,0,1,1.8-1.2Z" transform="translate(-14.3 -2.8)" fill="#725641"/><path d="M533.8,167.5v.8H533a1.1,1.1,0,0,1-.8-.2.9.9,0,0,1-.4-.6,1.3,1.3,0,0,1-.8.6,2,2,0,0,1-1.1.2,2.1,2.1,0,0,1-1.4-.4,1.3,1.3,0,0,1-.5-1.1,1.4,1.4,0,0,1,.6-1.1,3,3,0,0,1,1.7-.7l1.4-.2v-.4a1.1,1.1,0,0,0-.3-.8,1.2,1.2,0,0,0-.9-.3,1.3,1.3,0,0,0-1.4,1l-1-.5a2.1,2.1,0,0,1,.8-1.1,4.2,4.2,0,0,1,1.6-.4,2.4,2.4,0,0,1,1.8.6,1.8,1.8,0,0,1,.7,1.5v2.9h.8Zm-2.6-.3a.8.8,0,0,0,.5-.8v-.7l-1.2.3a1.2,1.2,0,0,0-.9.3.5.5,0,0,0-.3.5.6.6,0,0,0,.2.5l.6.2A1.8,1.8,0,0,0,531.2,167.2Z" transform="translate(-14.3 -2.8)" fill="#725641"/><path d="M428.7,178.2c0,.3,0,.5.1.6H430v1l-1,.2a1.6,1.6,0,0,1-1.1-.4,1.7,1.7,0,0,1-.4-1.3v-6.8h1.3Z" transform="translate(-14.3 -2.8)" fill="#725641"/><path d="M436.3,179v.8l-.7.2-.8-.2a1.6,1.6,0,0,1-.4-.7,1.6,1.6,0,0,1-.7.7l-1.2.2a2.9,2.9,0,0,1-1.4-.4,1.6,1.6,0,0,1-.5-1.1,1.4,1.4,0,0,1,.6-1.2,3,3,0,0,1,1.7-.6l1.4-.3v-.3a1.4,1.4,0,0,0-.3-.9,1.2,1.2,0,0,0-.9-.3,1.4,1.4,0,0,0-1.4,1.1l-1-.5a1.5,1.5,0,0,1,.8-1.1,2.9,2.9,0,0,1,1.6-.4,2.4,2.4,0,0,1,1.8.5,1.8,1.8,0,0,1,.7,1.5v2.6c0,.2,0,.3.1.3s.1.2.3.2Zm-2.6-.3a.7.7,0,0,0,.5-.8v-.6l-1.2.2-.9.3a.9.9,0,0,0-.3.6.8.8,0,0,0,.2.5h.7A1.7,1.7,0,0,0,433.7,178.7Z" transform="translate(-14.3 -2.8)" fill="#725641"/><path d="M445.7,172.9a2.1,2.1,0,0,1,.7,1.7,2.3,2.3,0,0,1-.7,1.8,2.9,2.9,0,0,1-1.9.6h-1.7v2.9h-1.3v-7.7h3A2.9,2.9,0,0,1,445.7,172.9Zm-.9,2.7a1.3,1.3,0,0,0,.4-1c0-.9-.6-1.3-1.6-1.3h-1.5v2.6h1.5A2.1,2.1,0,0,0,444.8,175.6Z" transform="translate(-14.3 -2.8)" fill="#725641"/><path d="M451.3,174.1l-.2,1.1h-.7a1,1,0,0,0-.7.2,1,1,0,0,0-.5.6c-.2.2-.2.5-.2.9v3.1h-1.3v-5.8h1.1v1a1.8,1.8,0,0,1,1.8-1.1Z" transform="translate(-14.3 -2.8)" fill="#725641"/><path d="M456.8,174.8a2.9,2.9,0,0,1,.8,2.2,3.3,3.3,0,0,1-.8,2.2,3.2,3.2,0,0,1-4.2,0,3.3,3.3,0,0,1-.8-2.2,2.9,2.9,0,0,1,.8-2.2,3.2,3.2,0,0,1,4.2,0Zm-3.3.7a2.1,2.1,0,0,0-.4,1.5,2.4,2.4,0,0,0,.4,1.5,1.7,1.7,0,0,0,1.2.5,1.5,1.5,0,0,0,1.2-.5,2.5,2.5,0,0,0,.5-1.5,2.1,2.1,0,0,0-.5-1.5,1.3,1.3,0,0,0-1.2-.6A1.4,1.4,0,0,0,453.5,175.5Z" transform="translate(-14.3 -2.8)" fill="#725641"/><path d="M459.5,179.7a2.8,2.8,0,0,1-1-.9l.9-.8a1.2,1.2,0,0,0,.6.8l1.1.2,1-.2a.5.5,0,0,0,.3-.5c0-.2-.1-.3-.3-.4l-1.1-.3a5.2,5.2,0,0,1-1.8-.7,1.4,1.4,0,0,1-.5-1.1,1.4,1.4,0,0,1,.3-.9,2.7,2.7,0,0,1,.8-.7l1.3-.2a3.5,3.5,0,0,1,1.6.3,1.8,1.8,0,0,1,.9,1l-.9.6c-.2-.3-.3-.6-.6-.7a1.4,1.4,0,0,0-.9-.3,1.2,1.2,0,0,0-.9.3.5.5,0,0,0-.3.4.5.5,0,0,0,.3.5,1.9,1.9,0,0,0,1.1.4,3,3,0,0,1,1.7.6,1.4,1.4,0,0,1,.5,1.1,1.5,1.5,0,0,1-.7,1.3,3,3,0,0,1-1.8.5A4.1,4.1,0,0,1,459.5,179.7Z" transform="translate(-14.3 -2.8)" fill="#725641"/><path d="M469.9,174.8a2.9,2.9,0,0,1,.7,2.2,3.2,3.2,0,0,1-.7,2.2,2.4,2.4,0,0,1-1.9.8,2.3,2.3,0,0,1-1.1-.3,1.9,1.9,0,0,1-.7-.8v3.4h-1.3v-8.2H466v1.1a2.2,2.2,0,0,1,.7-.9,2.7,2.7,0,0,1,1.2-.3A2.1,2.1,0,0,1,469.9,174.8Zm-1,3.6a2,2,0,0,0,.5-1.4,2.3,2.3,0,0,0-.5-1.5c-.2-.4-.6-.5-1.1-.5a1.6,1.6,0,0,0-1.2.4,2.9,2.9,0,0,0-.4,1.4v.4a2.5,2.5,0,0,0,.4,1.3,1.7,1.7,0,0,0,1.2.5A1.1,1.1,0,0,0,468.9,178.4Z" transform="translate(-14.3 -2.8)" fill="#725641"/><path d="M477.1,177.4h-4.2a2.3,2.3,0,0,0,.6,1.2,1.2,1.2,0,0,0,1.1.4l.9-.2a.6.6,0,0,0,.5-.6l1.1.4a2.6,2.6,0,0,1-2.5,1.4,2.8,2.8,0,0,1-2.9-3,2.9,2.9,0,0,1,.7-2.2,2.5,2.5,0,0,1,2.1-.8,2.6,2.6,0,0,1,2,.7,3,3,0,0,1,.7,2.1A1.3,1.3,0,0,1,477.1,177.4Zm-3.7-2.1a3.3,3.3,0,0,0-.5,1.2H476a1.3,1.3,0,0,0-.5-1.1,1.2,1.2,0,0,0-1-.4A2,2,0,0,0,473.4,175.3Z" transform="translate(-14.3 -2.8)" fill="#725641"/><path d="M482.2,174.1l-.2,1.1h-.8a.7.7,0,0,0-.6.2c-.3.1-.4.3-.6.6a2,2,0,0,0-.2.9v3.1h-1.2v-5.8h1v1a1.8,1.8,0,0,1,1.8-1.1Z" transform="translate(-14.3 -2.8)" fill="#725641"/><path d="M483.2,172.9c-.2-.1-.2-.3-.2-.6s0-.4.2-.5.3-.2.6-.2.5,0,.6.2a.8.8,0,0,1,.2.5.8.8,0,0,1-.2.6c-.1.2-.3.2-.6.2S483.3,173.1,483.2,172.9Zm1.2,7h-1.2v-5.8h1.2Z" transform="translate(-14.3 -2.8)" fill="#725641"/><path d="M491.5,171.5v8.4h-1.1v-1.1a1.6,1.6,0,0,1-.7.9,2.7,2.7,0,0,1-1.2.3,2.6,2.6,0,0,1-1.9-.8,3.6,3.6,0,0,1-.7-2.2,3.4,3.4,0,0,1,.7-2.2,2.2,2.2,0,0,1,1.9-.8,2,2,0,0,1,1.1.3,1.8,1.8,0,0,1,.8.7v-3.5Zm-1.7,7a2.5,2.5,0,0,0,.5-1.5h0a2,2,0,0,0-.5-1.4c-.2-.4-.6-.5-1.1-.5a1.7,1.7,0,0,0-1.2.5,2.2,2.2,0,0,0-.4,1.5,2.4,2.4,0,0,0,.4,1.5,1.7,1.7,0,0,0,1.2.5A1.3,1.3,0,0,0,489.8,178.5Z" transform="translate(-14.3 -2.8)" fill="#725641"/><path d="M498.7,179v.8l-.7.2-.8-.2a1,1,0,0,1-.4-.7,2.7,2.7,0,0,1-.8.7l-1.2.2a2.5,2.5,0,0,1-1.3-.4,1.4,1.4,0,0,1-.6-1.1,1.4,1.4,0,0,1,.6-1.2,3.8,3.8,0,0,1,1.7-.6l1.5-.3v-.3a1.1,1.1,0,0,0-1.2-1.2,1.4,1.4,0,0,0-1.5,1.1l-1-.5a2,2,0,0,1,.9-1.1,2.5,2.5,0,0,1,1.6-.4,2.3,2.3,0,0,1,1.7.5,1.6,1.6,0,0,1,.7,1.5v2.6c0,.2,0,.3.1.3l.3.2Zm-2.6-.3a.9.9,0,0,0,.5-.8v-.6l-1.3.2-.9.3a.9.9,0,0,0-.3.6.5.5,0,0,0,.3.5h.6A2,2,0,0,0,496.1,178.7Z" transform="translate(-14.3 -2.8)" fill="#725641"/><path d="M505,171.5v8.4h-1.1v-1.1a1.6,1.6,0,0,1-.7.9,2.7,2.7,0,0,1-1.2.3,2.6,2.6,0,0,1-1.9-.8,3.6,3.6,0,0,1-.7-2.2,3.4,3.4,0,0,1,.7-2.2,2.2,2.2,0,0,1,1.9-.8,2,2,0,0,1,1.1.3,1.2,1.2,0,0,1,.7.7v-3.5Zm-1.7,7a2.4,2.4,0,0,0,.4-1.5h0a2,2,0,0,0-.4-1.4,1.2,1.2,0,0,0-1.1-.5,1.7,1.7,0,0,0-1.2.5,2.2,2.2,0,0,0-.4,1.5,2.4,2.4,0,0,0,.4,1.5,1.7,1.7,0,0,0,1.2.5A1.6,1.6,0,0,0,503.3,178.5Z" transform="translate(-14.3 -2.8)" fill="#725641"/><path d="M514.9,172.5a3.4,3.4,0,0,1,1.2,1.2l-.9.8a2.7,2.7,0,0,0-.8-1,2.5,2.5,0,0,0-1.3-.3,1.9,1.9,0,0,0-1.2.3,1,1,0,0,0-.5.8,1.2,1.2,0,0,0,.4.8l1.6.4,1.6.5a2.2,2.2,0,0,1,.9.7,1.7,1.7,0,0,1,.3,1,2.1,2.1,0,0,1-.4,1.2,2.3,2.3,0,0,1-1.1.8,4.1,4.1,0,0,1-1.6.3,3.6,3.6,0,0,1-3.3-1.6l.9-.8a3.2,3.2,0,0,0,1,1,2.6,2.6,0,0,0,1.4.3,2.3,2.3,0,0,0,1.3-.3.9.9,0,0,0,.5-.8c0-.3-.2-.5-.5-.7l-1.4-.4a5.8,5.8,0,0,1-1.7-.5,2.2,2.2,0,0,1-.9-.7,1.7,1.7,0,0,1-.3-1,1.6,1.6,0,0,1,.4-1.2,1.8,1.8,0,0,1,1-.9,3.8,3.8,0,0,1,1.6-.3A4.8,4.8,0,0,1,514.9,172.5Z" transform="translate(-14.3 -2.8)" fill="#725641"/><path d="M522.2,174.8a2.9,2.9,0,0,1,.8,2.2,3.3,3.3,0,0,1-.8,2.2,3.2,3.2,0,0,1-4.2,0,3.3,3.3,0,0,1-.8-2.2,2.9,2.9,0,0,1,.8-2.2,3.2,3.2,0,0,1,4.2,0Zm-3.3.7a2.1,2.1,0,0,0-.4,1.5,2.4,2.4,0,0,0,.4,1.5,1.7,1.7,0,0,0,2.4,0,2.4,2.4,0,0,0,.4-1.5,2.1,2.1,0,0,0-.4-1.5,1.5,1.5,0,0,0-2.4,0Z" transform="translate(-14.3 -2.8)" fill="#725641"/><path d="M529.4,175.6l-1.1.5a1.3,1.3,0,0,0-1.4-1.1,1.3,1.3,0,0,0-1.2.5,2.1,2.1,0,0,0-.4,1.5,2.4,2.4,0,0,0,.4,1.5,1.7,1.7,0,0,0,1.2.5,1.2,1.2,0,0,0,.9-.3,1.4,1.4,0,0,0,.5-.8l1.2.4a2.7,2.7,0,0,1-.9,1.2,3.1,3.1,0,0,1-1.7.5,2.9,2.9,0,0,1-2.1-.8,3.3,3.3,0,0,1-.8-2.2,2.9,2.9,0,0,1,.8-2.2,2.5,2.5,0,0,1,2.1-.8A2.3,2.3,0,0,1,529.4,175.6Z" transform="translate(-14.3 -2.8)" fill="#725641"/><path d="M530.7,172.9a.8.8,0,0,1-.2-.6.8.8,0,0,1,.2-.5.7.7,0,0,1,.6-.2.8.8,0,0,1,.7.2.8.8,0,0,1,.2.5.7.7,0,0,1-.9.8A.7.7,0,0,1,530.7,172.9Zm1.3,7h-1.3v-5.8H532Z" transform="translate(-14.3 -2.8)" fill="#725641"/><path d="M539.1,179v.8l-.7.2-.8-.2a.9.9,0,0,1-.3-.7,2.7,2.7,0,0,1-.8.7l-1.2.2a2.9,2.9,0,0,1-1.4-.4,1.6,1.6,0,0,1-.5-1.1,1.4,1.4,0,0,1,.6-1.2,3.4,3.4,0,0,1,1.7-.6l1.4-.3v-.3a1.4,1.4,0,0,0-.3-.9,1.1,1.1,0,0,0-.8-.3,1.4,1.4,0,0,0-1.5,1.1l-1-.5a1.7,1.7,0,0,1,.9-1.1,3.3,3.3,0,0,1,3.3.1,1.6,1.6,0,0,1,.7,1.5v2.6c0,.2,0,.3.1.3s.1.2.3.2Zm-2.5-.3a.8.8,0,0,0,.4-.8v-.6l-1.2.2-.9.3a.9.9,0,0,0-.3.6.8.8,0,0,0,.2.5h.7A2.3,2.3,0,0,0,536.6,178.7Z" transform="translate(-14.3 -2.8)" fill="#725641"/><path d="M541.3,178.2a3.5,3.5,0,0,0,.1.6h1.3l-.2,1-.9.2a2.1,2.1,0,0,1-1.2-.4,2.3,2.3,0,0,1-.3-1.3v-6.8h1.2Z" transform="translate(-14.3 -2.8)" fill="#725641"/><path d="M285.5,162.4h-6.6V150.9h2.2v9.6h4.4Z" transform="translate(-14.3 -2.8)" fill="#725641"/><path d="M291.6,161.3a2.3,2.3,0,0,1-2.3,1.1,2.5,2.5,0,0,1-1.9-.7,2.1,2.1,0,0,1-.7-1.8,2.3,2.3,0,0,1,.9-1.9,4,4,0,0,1,2.6-.7h1.3v-.5a1.2,1.2,0,0,0-.4-1.1c-.2-.3-.7-.4-1.3-.4a4.6,4.6,0,0,0-2.5.8v-1.9a5.3,5.3,0,0,1,2.8-.6c2.3,0,3.5,1.1,3.5,3.3v5.5h-2Zm-1.6-.4a1.4,1.4,0,0,0,1.1-.4,1.2,1.2,0,0,0,.4-1v-.8h-1.1a2.1,2.1,0,0,0-1.2.3.9.9,0,0,0-.4.8C288.8,160.6,289.2,160.9,290,160.9Z" transform="translate(-14.3 -2.8)" fill="#725641"/><path d="M302,165.6h-2.1V153.7H302v1.4a2.9,2.9,0,0,1,2.6-1.5,3.4,3.4,0,0,1,2.7,1.2,5.6,5.6,0,0,1,0,6.4,3.2,3.2,0,0,1-2.7,1.3,2.9,2.9,0,0,1-2.6-1.4Zm.6-9.6a3.6,3.6,0,0,0,0,4,2,2,0,0,0,3,0,2.8,2.8,0,0,0,.6-2,2.7,2.7,0,0,0-.6-1.9,1.8,1.8,0,0,0-1.5-.7A2.2,2.2,0,0,0,302.6,156Z" transform="translate(-14.3 -2.8)" fill="#725641"/><path d="M312.1,162.4H310v-8.7h2.1v1.6a2.1,2.1,0,0,1,2.1-1.6h.6v2l-.8-.2a1.9,1.9,0,0,0-1.4.7,2.5,2.5,0,0,0-.5,1.7Z" transform="translate(-14.3 -2.8)" fill="#725641"/><path d="M323.9,158a4.8,4.8,0,0,1-1.1,3.2,4.3,4.3,0,0,1-6.1.1,4.3,4.3,0,0,1-1.1-3.2,4.8,4.8,0,0,1,1.1-3.2,3.8,3.8,0,0,1,3-1.3,3.9,3.9,0,0,1,3.1,1.2A5,5,0,0,1,323.9,158Zm-6.2.1a4.2,4.2,0,0,0,.5,2,1.9,1.9,0,0,0,1.5.8,1.9,1.9,0,0,0,1.6-.8,4.2,4.2,0,0,0,0-4,1.7,1.7,0,0,0-1.6-.8,1.7,1.7,0,0,0-1.5.8A3.9,3.9,0,0,0,317.7,158.1Z" transform="translate(-14.3 -2.8)" fill="#725641"/><path d="M331.3,159.9a2.3,2.3,0,0,1-.9,1.9,3.9,3.9,0,0,1-2.3.6,5,5,0,0,1-2.6-.5V160a3.9,3.9,0,0,0,2.5.8l.9-.2a.6.6,0,0,0,.3-.6v-.4l-.4-.3-.5-.3-.6-.3h-.2a2.6,2.6,0,0,1-1.9-2.4,2.3,2.3,0,0,1,.9-1.9,3.8,3.8,0,0,1,2.2-.7,6.7,6.7,0,0,1,2.2.4v1.8a4.6,4.6,0,0,0-2.1-.5l-.8.2a.9.9,0,0,0-.3.6v.3l.2.2.2.2.3.2h.3l.4.2.3.2a5.6,5.6,0,0,1,1.5,1A2,2,0,0,1,331.3,159.9Z" transform="translate(-14.3 -2.8)" fill="#725641"/><path d="M335,165.6h-2.1V153.7H335v1.4a2.8,2.8,0,0,1,2.6-1.5,3.4,3.4,0,0,1,2.7,1.2,5.6,5.6,0,0,1,0,6.4,3.5,3.5,0,0,1-2.7,1.3,2.8,2.8,0,0,1-2.6-1.4Zm.6-9.6a3.6,3.6,0,0,0,0,4,2,2,0,0,0,3,0,3,3,0,0,0,.6-2,2.7,2.7,0,0,0-.6-1.9,1.9,1.9,0,0,0-1.5-.8A2.1,2.1,0,0,0,335.6,156Z" transform="translate(-14.3 -2.8)" fill="#725641"/><path d="M349.6,161.9a6,6,0,0,1-2.6.5,4.1,4.1,0,0,1-3.2-1.2,4.4,4.4,0,0,1-1.2-3.2,4.3,4.3,0,0,1,1.1-3.2,3.6,3.6,0,0,1,2.8-1.2,3.7,3.7,0,0,1,2.7,1.1,4,4,0,0,1,1,2.9,6.9,6.9,0,0,1-.2,1.3h-5.4a2.8,2.8,0,0,0,.9,1.4,3.5,3.5,0,0,0,1.8.5,3.5,3.5,0,0,0,2.3-.7Zm-3.1-6.7a1.6,1.6,0,0,0-1.2.6,2.4,2.4,0,0,0-.7,1.5h3.6v-.2a2.9,2.9,0,0,0-.4-1.4A1.7,1.7,0,0,0,346.5,155.2Z" transform="translate(-14.3 -2.8)" fill="#725641"/><path d="M354.1,162.3H352v-8.6h2.1v1.6a2.1,2.1,0,0,1,2.1-1.6h.6v2l-.8-.2a1.5,1.5,0,0,0-1.4.7,2.3,2.3,0,0,0-.5,1.7Z" transform="translate(-14.3 -2.8)" fill="#725641"/><path d="M360.4,151.1a1.3,1.3,0,0,1-.4.9,1,1,0,0,1-.9.4.9.9,0,0,1-.8-.4,1,1,0,0,1-.4-.9,1.4,1.4,0,0,1,1.2-1.2,1,1,0,0,1,.9.4A1.2,1.2,0,0,1,360.4,151.1Zm-.2,11.2h-2.1v-8.6h2.1Z" transform="translate(-14.3 -2.8)" fill="#725641"/><path d="M370.3,162.3h-2V161a2.9,2.9,0,0,1-2.6,1.5,3.5,3.5,0,0,1-2.7-1.3,4.9,4.9,0,0,1-1-3.2,4.7,4.7,0,0,1,1-3.2,3.4,3.4,0,0,1,2.7-1.2,3,3,0,0,1,2.6,1.4v-4.7h2Zm-6.2-4.2a2.9,2.9,0,0,0,.6,1.9,2,2,0,0,0,3,0,3.2,3.2,0,0,0,.6-2,2.8,2.8,0,0,0-.6-2,2.6,2.6,0,0,0-1.5-.7,1.9,1.9,0,0,0-1.5.8A2.8,2.8,0,0,0,364.1,158.1Z" transform="translate(-14.3 -2.8)" fill="#725641"/><path d="M377.1,161.3a2.5,2.5,0,0,1-2.3,1.1,2.4,2.4,0,0,1-1.9-.7,2.5,2.5,0,0,1-.8-1.8,2.1,2.1,0,0,1,1-1.9,3.8,3.8,0,0,1,2.6-.7H377v-.6a1.5,1.5,0,0,0-.4-1,1.7,1.7,0,0,0-1.3-.4,4.5,4.5,0,0,0-2.5.7v-1.8a5.3,5.3,0,0,1,2.8-.6c2.3,0,3.5,1,3.5,3.2v5.5h-2Zm-1.6-.4a1.4,1.4,0,0,0,1.1-.4,1.8,1.8,0,0,0,.4-1.1v-.8h-1.1a1.6,1.6,0,0,0-1.2.4.9.9,0,0,0-.4.8C374.3,160.5,374.7,160.9,375.5,160.9Z" transform="translate(-14.3 -2.8)" fill="#725641"/><path d="M389.1,162.3H387V161a2.7,2.7,0,0,1-2.6,1.5,3.5,3.5,0,0,1-2.7-1.3,5.5,5.5,0,0,1-1-3.2,4.8,4.8,0,0,1,1.1-3.2,3.4,3.4,0,0,1,2.7-1.2A2.9,2.9,0,0,1,387,155v-4.7h2.1Zm-6.3-4.2a3.1,3.1,0,0,0,.6,1.9,2,2,0,0,0,3,0,3.3,3.3,0,0,0,.6-2.1,2.7,2.7,0,0,0-.6-1.9,1.8,1.8,0,0,0-1.5-.7,2.1,2.1,0,0,0-1.5.7A3.3,3.3,0,0,0,382.8,158.1Z" transform="translate(-14.3 -2.8)" fill="#725641"/><path d="M285.4,176.8a4.5,4.5,0,0,1-2.6.6,4.4,4.4,0,0,1-3.2-1.2,4.5,4.5,0,0,1-1.2-3.2,4.4,4.4,0,0,1,1.1-3.2,3.8,3.8,0,0,1,2.8-1.2,3.6,3.6,0,0,1,2.7,1,4.5,4.5,0,0,1,1,3c0,.3-.1.7-.1,1.2h-5.5a2.4,2.4,0,0,0,1,1.4,2.3,2.3,0,0,0,1.7.5,3.5,3.5,0,0,0,2.3-.7Zm-3-6.6a2.1,2.1,0,0,0-1.3.5,2.6,2.6,0,0,0-.7,1.6H284V172a1.8,1.8,0,0,0-.4-1.3A1.3,1.3,0,0,0,282.4,170.2Z" transform="translate(-14.3 -2.8)" fill="#725641"/><path d="M293.5,174.8a2.3,2.3,0,0,1-.9,1.9,3.9,3.9,0,0,1-2.3.7,5,5,0,0,1-2.6-.6V175a4.5,4.5,0,0,0,2.5.7,1.3,1.3,0,0,0,.9-.2.6.6,0,0,0,.3-.6c0-.1-.1-.2-.1-.4l-.4-.3-.5-.3-.6-.2h-.2a2.7,2.7,0,0,1-1.9-2.5,2.3,2.3,0,0,1,.9-1.9,3.8,3.8,0,0,1,2.2-.6,6.9,6.9,0,0,1,2.2.3v1.8a4.6,4.6,0,0,0-2.1-.5c-.4,0-.7.1-.8.3a.5.5,0,0,0-.3.5v.5l.3.2c0,.1.1.1.3.2l.3.2h.3l.4.2a5.6,5.6,0,0,1,1.5,1A2.2,2.2,0,0,1,293.5,174.8Z" transform="translate(-14.3 -2.8)" fill="#725641"/><path d="M307.2,177.3h-2v-1.4a2.9,2.9,0,0,1-2.6,1.5,3,3,0,0,1-2.7-1.3,5.6,5.6,0,0,1,0-6.4,3.4,3.4,0,0,1,2.7-1.2,2.9,2.9,0,0,1,2.6,1.5v-4.7h2ZM301,173a2.9,2.9,0,0,0,.6,1.9,1.7,1.7,0,0,0,1.4.7,1.9,1.9,0,0,0,1.6-.7,2.8,2.8,0,0,0,.6-2,2.6,2.6,0,0,0-.7-2,2,2,0,0,0-1.4-.6,1.8,1.8,0,0,0-1.5.7A3.2,3.2,0,0,0,301,173Z" transform="translate(-14.3 -2.8)" fill="#725641"/><path d="M316,176.8a4.5,4.5,0,0,1-2.6.6,4.1,4.1,0,0,1-3.2-1.3A4.1,4.1,0,0,1,309,173a4.9,4.9,0,0,1,1.1-3.3,4.1,4.1,0,0,1,2.8-1.1,3.6,3.6,0,0,1,2.7,1,4.5,4.5,0,0,1,1,3c0,.3-.1.7-.1,1.2H311a2.4,2.4,0,0,0,1,1.4,2.9,2.9,0,0,0,1.7.5,3.5,3.5,0,0,0,2.3-.7Zm-3-6.6a1.7,1.7,0,0,0-1.3.5,2.6,2.6,0,0,0-.7,1.6h3.6V172a1.7,1.7,0,0,0-.4-1.3A1.3,1.3,0,0,0,313,170.2Z" transform="translate(-14.3 -2.8)" fill="#725641"/><path d="M327.4,177.1a3.3,3.3,0,0,1-1.5.3c-1.9,0-2.8-1-2.8-2.9v-4.3h-1.3v-1.6h1.3v-2h2v2h2.2v1.6h-2.2v4.4a1,1,0,0,0,1.1,1.1,1.6,1.6,0,0,0,1.2-.4Z" transform="translate(-14.3 -2.8)" fill="#725641"/><path d="M337,172.9a4.8,4.8,0,0,1-1.1,3.2,3.9,3.9,0,0,1-3.1,1.3,4.1,4.1,0,0,1-3.1-1.2,4.7,4.7,0,0,1-1.1-3.1,4.5,4.5,0,0,1,1.2-3.3,3.7,3.7,0,0,1,3-1.3,3.7,3.7,0,0,1,3.1,1.3A4.5,4.5,0,0,1,337,172.9Zm-6.2.1a4.2,4.2,0,0,0,.5,2,1.9,1.9,0,0,0,1.5.8,1.6,1.6,0,0,0,1.5-.8,4.3,4.3,0,0,0,0-4,1.5,1.5,0,0,0-1.5-.8,1.7,1.7,0,0,0-1.5.8A3.9,3.9,0,0,0,330.8,173Z" transform="translate(-14.3 -2.8)" fill="#725641"/><path d="M346.6,177.3h-2v-1.4a2.9,2.9,0,0,1-2.6,1.5,3,3,0,0,1-2.7-1.3,5.6,5.6,0,0,1,0-6.4,3.4,3.4,0,0,1,2.7-1.2,2.9,2.9,0,0,1,2.6,1.5v-4.8h2Zm-6.2-4.3a2.9,2.9,0,0,0,.6,1.9,1.5,1.5,0,0,0,1.4.7,2,2,0,0,0,1.6-.7,2.8,2.8,0,0,0,.6-2,2.4,2.4,0,0,0-.7-2,2,2,0,0,0-1.5-.6,1.7,1.7,0,0,0-1.4.7A3,3,0,0,0,340.4,173Z" transform="translate(-14.3 -2.8)" fill="#725641"/><path d="M356.7,172.9a4.8,4.8,0,0,1-1.1,3.2,4.3,4.3,0,0,1-6.1.1,5.2,5.2,0,0,1,0-6.4,3.8,3.8,0,0,1,3-1.3,4,4,0,0,1,3.1,1.2A5,5,0,0,1,356.7,172.9Zm-6.2.1a4.2,4.2,0,0,0,.5,2,1.9,1.9,0,0,0,1.5.8,1.9,1.9,0,0,0,1.6-.8,4.3,4.3,0,0,0,0-4,1.7,1.7,0,0,0-1.6-.8,1.7,1.7,0,0,0-1.5.8A3.9,3.9,0,0,0,350.5,173Z" transform="translate(-14.3 -2.8)" fill="#725641"/><path d="M364.1,174.8a2.3,2.3,0,0,1-.9,1.9,3.9,3.9,0,0,1-2.3.6,5,5,0,0,1-2.6-.5v-1.9a3.9,3.9,0,0,0,2.5.8l.8-.2a.5.5,0,0,0,.4-.6v-.4l-.4-.3-.5-.3-.6-.3h-.3a2.6,2.6,0,0,1-1.8-2.4,2.3,2.3,0,0,1,.9-1.9,3.8,3.8,0,0,1,2.2-.7,6.7,6.7,0,0,1,2.2.4v1.8a4.6,4.6,0,0,0-2.1-.5l-.9.2a.9.9,0,0,0-.3.6c0,.1.1.2.1.3v.2l.3.2.2.2h.4l.3.2.4.2a3.9,3.9,0,0,1,1.4,1A1.7,1.7,0,0,1,364.1,174.8Z" transform="translate(-14.3 -2.8)" fill="#725641"/><path d="M253.8,155.9h0v-.2h-.1l-1.6.6-1.6.5h0a1.4,1.4,0,0,1-.8.9v-.8l-.2-1.9h.2a.8.8,0,0,0,.7-.2,6.9,6.9,0,0,0,1.4-1.5v-.2l.3-.4h.3c.6,0,.6-.4.6-.6s-.6-.9-1-1.1h0c0-.6-1.1-1.2-2-1.6h0c-.1-.1-.1-.3-.2-.5a41.8,41.8,0,0,0-8.7-5.9,5.3,5.3,0,0,0-1.9-.4,9.5,9.5,0,0,0-3.3.7,1.6,1.6,0,0,0-.6,1.2,2.4,2.4,0,0,0,.7,1.5c.2.3.4.5.4.7s-.1.3-.2.3a1.4,1.4,0,0,0-1.3-.7h-.6l-.2-.3v-.4c0-.4-.3-.6-.6-.8h0c-.1-.2-.3-.2-.5-.2h-.7a1.3,1.3,0,0,0,.1-.6c0-1.6-2.3-1.7-2.6-1.7-3.3,0-7.4,2.9-10.9,5.6l-.7.7a2.3,2.3,0,0,1-.7.7l-.4.3a2.3,2.3,0,0,0-1,.7l-.2.3v.2l-.3.2c-.3.3-.6.6-.6.9a.5.5,0,0,0,.5.5l.7-.2h0l2.1,2.5h1l-.2,1.9v.8h-.1a1,1,0,0,1-.5-.4v-.2c0-.2,0-.3-.2-.4l-3.8-1.4.3.4c2.4,2.8,2.5,2.8,2.6,2.8h.8l-.2,2.1v4.4a41.4,41.4,0,0,0,.6,4.5,15.3,15.3,0,0,0,2.9,6.3l.2.2h0a7.3,7.3,0,0,0,5.3,2.6,10.5,10.5,0,0,0,5.1-1.8,23.5,23.5,0,0,1-2.1,4.2h1.7l-.2.8h-.1v.2h.1c0,.3.7.4.7.4h.7v.7h0c.2.8,1.2.8,1.7.8h.2a2.7,2.7,0,0,0,1.2-.3.8.8,0,0,0,.1-.4v-.7a1.9,1.9,0,0,0,1.2-.3.4.4,0,0,0,.1-.3h0V182a1.1,1.1,0,0,1-.1-.5h1.8v-.2a18,18,0,0,1-1.7-3.4v-.2c0-.2-.1-.3-.1-.5a.1.1,0,0,0,.1.1,9.9,9.9,0,0,0,5.1,1.6c3,0,5.1-2.2,6.3-4a16,16,0,0,0,2.3-7.3,2.2,2.2,0,0,0,.1-.6c.1-.7.2-1.6.2-1.8v-4.4l-.2-2.1h.9c0-.1,2.2-2.5,2.2-2.7h0m-1.7-3.2a.1.1,0,0,1-.1.1h0l-.2.3h-.2a6.9,6.9,0,0,1-1.3,1.5h-.9l1.3-1,.8-.7.4-.3h0c.1-.1.1-.1.1-.2h-.1l.5-.2-.3.3m-5.6,5.8.4-.4,1.3-1.4-.2-.2-1.3,1.5-.2.2c0-.5-.1-.9-.1-1.1l2.7-2v-.2l-5.2,3.9h0l1.9-1.5,3.2-2.5a.9.9,0,0,0,.4-.7c.1-.1.1-.3.2-.3l1.4-.7h.9l-2.5,1.7v.6h.1l.2,2.2v.9l-3.1,2.1a5.3,5.3,0,0,0,.1-1.3v-.4m-2,2.4h0a.9.9,0,0,1,.1-.5h1.5l-.8.5Zm.5.3-.6.4a.6.6,0,0,1,.1-.4Zm1.3-3.2v.4l-.2.2h-1.5l.7-.5Zm-.7-.2.6-.5v.5Zm-1,1.6v-.6h1.2l-.7.6Zm.3.2-.3.2v-.2Zm-.3.6h0l.6-.5h1.1a1.3,1.3,0,0,0-.1.6Zm.9-.8.6-.6h.2v.5Zm-1.6,1.3.4-.3h0v.4a2,2,0,0,1-.2.9h-.3a4.1,4.1,0,0,0,.1-1m0-.3Zm.3-.2h-.3a3.7,3.7,0,0,1-.1-1.1l.4-.3h.2V160l-.2.2m2.6,1v.5h-1.5l.8-.5Zm-.4-.3.4-.2v.2Zm.4,1.1h0l-.8.5h-1.2a.9.9,0,0,0,.1-.5h1.9Zm-.4.5.4-.2v.2Zm.3.3v.5H245l1.1-.5Zm-1,0-.9.4v-.4Zm1,.7a1.3,1.3,0,0,1-.1.6h-1.9c0-.2.1-.4.1-.6Zm-.1.8v.6h-1.9v-.6Zm-.1.8v.6h-1.9v-.6ZM241,175.9l-.5-.3.2-.2h2l-.4.5Zm1.1.3-.2.2-.5-.2Zm-5.3-1.5v-.5l-.6-.2-.4.3-.2-.3h.2l.8-.4,1,.8.3.7.4-.2-1.1,1.1h-.1v-.7Zm-.7,1.3h0c-.1-.1-.1-.2-.1-.4a.4.4,0,0,1,.1-.3h-.4v-.4h-.4v.4h-.5v-.4h-.4v.4h-.5v-.4h-.4v.4h-.3v.3l-.4.4h-.7l.4.7.6.4h2.8l.4-.2a8,8,0,0,1-1.9,1.3,24.5,24.5,0,0,1-2.9-2.2c.1-.1.2-.2.2-.3h.6l.2-.5.2-.3h.6l.4-.4,1.8-.2.3.4.5-.4h.4v.5l.4.4v.8l.2.2-.5.5V176Zm-.2.1h0Zm-.2-.4h0m-.9.5h0Zm0-.5h0m-.9.5h0Zm0-.5h0m-.4.4h0Zm2.7,5.7a.1.1,0,0,1-.1-.1h.6a.3.3,0,0,1,.1.2Zm.7.3Zm-.8-.1h-.8a7.1,7.1,0,0,0-.1-1.4h.4a5.6,5.6,0,0,0,.1.7h0l.2.3h.2m-.9-1.4c0-.5-.1-.9-.1-1.4h.3c0,.5.1,1,.1,1.4Zm-.9-2.2h.5a1.3,1.3,0,0,1,.1.6h-1v-.6Zm-.4-.2Zm1,1v.6h-1.1a1.3,1.3,0,0,0,.1-.6Zm0,.8a1.3,1.3,0,0,1,.1.6h-1.2V180Zm.1.8v.6h-1.3a1.3,1.3,0,0,0,.1-.6Zm.1.8v.6h-1.4v-.6Zm-.1-3.5h.2c0,.2.1.6.1,1h-.2a2.8,2.8,0,0,0-.1-.9m.1,4.3a4.3,4.3,0,0,0,.1.5h-1.6v-.5Zm-8.5-6.5-.4-.5h2l.2.2-.5.3Zm.9.3-.5.2-.2-.2Zm-4.7-15,.8.5h-1.5v-.5Zm-.7-.3v-.2l.3.2Zm1.8,1.1h.1v.5h-1.2l-.7-.5h1.8Zm.1.8c.1.1.1.2.1.4l-.9-.4Zm-1.5-.3h-.4v-.2l.4.2m.3.3,1.1.5h-1.7a.7.7,0,0,0-.1-.5Zm1.3.7a1.3,1.3,0,0,0,.1.6h-2v-.6Zm.1.8v.6h-1.9v-.6Zm0,.8a1.3,1.3,0,0,1,.1.6h-1.9a1.3,1.3,0,0,0-.1-.6Zm.9-3.4h-.3a2,2,0,0,1-.2-.9.6.6,0,0,0-.1-.4h.6v1.3m-.6-1.5v-1.4h.2l.4.3v1.1Zm.6,3.1h-.8a3.4,3.4,0,0,0-.1-1l.9.6v.5m-5.2-10.8h0a2.4,2.4,0,0,0,1.9,1.1l1.2-.3a2.6,2.6,0,0,1,1-.4l-.4.4c-.3.2-.5.3-.6.5a1.4,1.4,0,0,0-.2.4,3.7,3.7,0,0,0,1.2,2.5,1.5,1.5,0,0,0,1.1.4h.2a.1.1,0,0,1-.1.1v1h0c-1.9-1.4-3.8-2.7-5.4-4.1a.4.4,0,0,0-.1-.3c0-.2,0-.4-.2-.5h0l-2.7-1.1h1.3a2.6,2.6,0,0,0,1.5-.4h0l.3.5m1.2-.4c0-.2-.1-.5-.1-.7h.1a2.1,2.1,0,0,0,1.1.5l.7-.2.8-.2c.6,0,1.4,1,1.6,1.7l-.3-.2-.7-.2h0a2.5,2.5,0,0,0-1.4.3,3,3,0,0,1-1.1.4c-.6,0-1.1-.3-1.7-1.1h0a.2.2,0,0,1-.2-.2h1.2Zm8.3-3.8c-.1.2-.2.6-.5.7v-.2a1.1,1.1,0,0,1,1.1-1h0l-.6.5m.5.5v.2c0,.3-.3.6-.3,1l-.2-.3c0-.3.1-.8.5-.9m-1.1-1h0c0-.6.8-.8,1.1-.8h.1a3.4,3.4,0,0,1-1.2.9m0-2.4h-.2c0-.3.9-.4.9-.4h.2c0,.2-.8.4-.9.4m.2.3c.1,0,.5,0,.5.2v.2a2.3,2.3,0,0,0-1.1.3c0-.1-.1-.1-.1-.2s.6-.5.8-.5m0,.9h.3l-1,.5c-.1,0-.2,0-.2-.2s.7-.4.9-.4m-.9,1.3a4.4,4.4,0,0,0-.2,1c0,.2,0,.2.2.5h-.3c-.4,0-.3-.4-.3-.6a1.4,1.4,0,0,1,.6-1m-1.1,1.2c0,.3.1.2.2.5h-.3c-.2,0-.3-.2-.3-.4a1.4,1.4,0,0,1,.8-1.1h.1c-.2.3-.5.6-.5.9m-.2,1.2h.6a.6.6,0,0,0,.5-.2h.1l.3-.2h.3a.5.5,0,0,0,.4-.2h0v.2c0,.4,1.1,1.1,1.3,1.1h.3c.1.2.2.4.3.4a1.8,1.8,0,0,0-.1.6,1.6,1.6,0,0,0,.4,1.3c-.1.3-.3.5-.4.8h0l-1.5-.3a8.5,8.5,0,0,0-2.3.4,5.8,5.8,0,0,1-1.8.4,2.5,2.5,0,0,0,.4-1.1c0-.7-1-2.2-1.9-2.2l-.9.2-.6.2-.8-.4h0a1.6,1.6,0,0,0,1.5-.5h.5a2.1,2.1,0,0,0,1.2-.5h.7l.3-.2.6-.3a.4.4,0,0,0,.1.3.5.5,0,0,0,.5.5m10-1.2a1.1,1.1,0,0,1,.5.9c0,.2-.1.7-.4.7v-.8l-.2-.8m-.1-1h.2c.4,0,.8.7.8.9v.2h-.2a7,7,0,0,0-.7-1m.1,3h.9c.3,0,.5-.2.7-.5h.4a.7.7,0,0,0,.3-.6h1.2a1.5,1.5,0,0,0,1,.6.5.5,0,0,0,.5-.3.8.8,0,0,0,.2-.6h.2a7.7,7.7,0,0,0,2.5,1.4h.3a2.6,2.6,0,0,0,1.4.7h-.2l-1.3-.3-1,.3a3.8,3.8,0,0,0-1.1,1.9c0,.4.3.7.6,1.1h-.1a5.8,5.8,0,0,1-1.8-.4,7.8,7.8,0,0,0-2.1-.4h-1a.3.3,0,0,1-.1-.2h-.2l-.2.2h-.3V154h0v-.2h-.2c-.3.2-.3.3-.3.4H237c0-.1,0-.2-.2-.3h-.2v.3l-.3-.4h.1a4.3,4.3,0,0,1,.1-.5,1.5,1.5,0,0,0-.2-.8.9.9,0,0,1-.1-.5,1.3,1.3,0,0,1,.1-.6v-.2h.1a.5.5,0,0,0,.4-.3m1.8-5.7c.2,0,1,.1,1,.6v.2l-.6-.4h-.5c-.1,0,0-.2-.1-.3h.3m-.2-.4v-.2h.3c.2,0,.6.1.7.4v.2h-.1l-.9-.3h0m1.7,3.1a1.3,1.3,0,0,1,.7,1c0,.2-.1.3-.3.5h-.2v-.6c0-.3-.2-.5-.3-.8m.3-.7c-.2,0-.1-.2-.5-.4l-1.1-.4h.4c.4,0,1.3.2,1.5.8h-.3m-.5,1.4c0,.1,0,.4-.1.4h-.2a4.6,4.6,0,0,0-.3-.9V148a.7.7,0,0,1,.5.8m-1.5-2.1c.4,0,1.3.4,1.3,1s0,.2-.1.2a7.1,7.1,0,0,1-1.3-1.2Zm.6,1.6c0,.2.1.3-.1.6s-.2-.7-.3-1-.4-.4-.4-.6h.1c.4-.1.7.9.7,1m-.4,1.4c0,.1,0,.3-.2.3a4.1,4.1,0,0,1-.3-.8h0a.6.6,0,0,1,.5.6m-.4-1.3c0,.1,0,.4-.1.5a3.4,3.4,0,0,1-.4-1.2.8.8,0,0,1,.5.7m-.4,1.1c.2,0,.3.3.3.4v.5H238c-.2,0-.3-.6-.3-.8h.1m3-1h.1a1,1,0,0,1,.6,1c0,.2-.1.5-.3.5h-.3c.2-.3.2-.3.2-.5a2.4,2.4,0,0,0-.3-.9m7.5,3.7h.2a2.3,2.3,0,0,1-1.9,1.3,3.2,3.2,0,0,1-1.6-.4h-.2l-.5-.2h-.8l-.4.3a3.3,3.3,0,0,1,1-1.5,1.1,1.1,0,0,1,.8-.2l1.1.2h.8a2.3,2.3,0,0,0,.7-.7v.7h0v.3h.9Zm-.6-.2h.1l.5.2Zm1,.2h.1V152h0a2.4,2.4,0,0,0,1.3.5l.5-.2.6.3h0l-.4.2a5.2,5.2,0,0,0-1.5.7c-.2.1-.2.3-.3.4a.9.9,0,0,1-.3.6l-3.2,2.5-1.8,1.4h-.1v-1.2a1.4,1.4,0,0,0,1-.4,4,4,0,0,0,1-2.4c0-.4-.3-.6-.7-.9a4.2,4.2,0,0,0,1.6.4c.8,0,1.5-.5,2.2-1.6Zm-9,20.4v.5h-.5l-1.5.9.4.3v.5h-.2l-.3-.6-1.1-.8-.9.4h-2.5l-1-.7-2.1-.4-1-.7-1.2-1.7h13.8a3.7,3.7,0,0,1-.5,1.1l-.9,1.2Zm.5.3-.2.3v-.3Zm-13.1-.1h-.3l-.7-1.4h1.2v.2l.4.6-.7.6m.8-.4.3.4h-.7l.4-.4m-1.9-1.2-.6-1.4h1.2l.6,1.4Zm-1.4-3.7v.3l-.5-.3Zm-.9-.2-.4-.3-.4-.3h1.5a1.3,1.3,0,0,1,.1.6Zm.8-2.2h.8a10.6,10.6,0,0,1,.3,1.4h-1c0-.5-.1-.9-.1-1.4m-.6-10.4h1.3l1.8-.3a8.6,8.6,0,0,1,2.3-.5,9.6,9.6,0,0,1,1.5.3h0a3.8,3.8,0,0,1,1.4.9c0,.2.3,1.3.6,1.3a.2.2,0,0,0,.2-.2,5.6,5.6,0,0,1-.1-.7l.2.2H233l.3.6-.4.2-1.1-.4a3,3,0,0,0-1.3-.2h-.7a5.2,5.2,0,0,0-1.8.2h-.3l-1,.3-1.2.2h-.1a1.5,1.5,0,0,1-1.3-.3,3.4,3.4,0,0,1-1-2.3h0l.8.4m-.7-.7.5-.4.6-.6.6.2.5.3h0a1.9,1.9,0,0,1-.4,1.1h-1.1a1.5,1.5,0,0,1-.7-.5m7.8-4.6a1.2,1.2,0,0,1,.2.8,1.5,1.5,0,0,1-.2.9h0c-.2-.2-.2-.8-.2-.8a2.4,2.4,0,0,1,.2-.9m-.2,0h-.1v-.3a3.3,3.3,0,0,1,.4-1.4,1,1,0,0,0,.1.3,3.7,3.7,0,0,1-.4,1.4m.4,1.9a1.8,1.8,0,0,1,.2,1v.6h0a.2.2,0,0,1-.2-.2,3.2,3.2,0,0,1-.1-.8,1.3,1.3,0,0,1,.1-.6m.6-1.2v.3c-.4-.3-.4-.8-.6-1.2v-.3a2.6,2.6,0,0,1,.5,1.2m-.4-2.6s0-.3.1-.4a2,2,0,0,1,.2,1,1.3,1.3,0,0,1-.1.6,2.3,2.3,0,0,1-.2-1.2m2.7,5.9c-.1,0-.2-.7-.2-.9a1.9,1.9,0,0,1,.2-.7,2.9,2.9,0,0,1,.2.9,1,1,0,0,1-.2.7m.2,0a1.4,1.4,0,0,1,.2.6,2,2,0,0,1-.3,1.1c0-.2-.1-.5-.1-.6a5.2,5.2,0,0,1,.2-1.1m.4,2.9h.1l.8.4h-1.9l1-.3m-.1-1.9v-.3a1.9,1.9,0,0,1,.4,1.2.6.6,0,0,1-.1.4,2.8,2.8,0,0,1-.4-1.3m3.4,1.9h.7a2.8,2.8,0,0,1,1.4.2l.8.3a5.4,5.4,0,0,1-2.2.5h-1l-.9-.2h-.1l-.5-.2,1.1-.3h.2l.4.3h.2v-.2m-1.8.7h.4l.6.2h1.5a4.2,4.2,0,0,0,2-.4h2.7v.5h-8l.3-.4h-.7l-.2-.3Zm7.3,1.5h-2.1a.5.5,0,0,0-.5-.3h-.1c-.2.1-.3.1-.4.3h-4.6a.9.9,0,0,0-.3-.7h8v.5h0v.2m-18.2.8a1.3,1.3,0,0,0,.1-.6h1.8v.3c0,.1.1.2.1.3h-2Zm1.9.3a.7.7,0,0,0-.1.6h-1.8v-.6Zm.9-2.6a6.5,6.5,0,0,0,1.8.4h1l1.9-.4h.5v.6h-8v-.4l1-.2Zm-.9-.3h0Zm2.6.5-2-.6a4.6,4.6,0,0,1,2-.3h.4a3.6,3.6,0,0,1-.4.9m.6,0h-.3V157h.1l.2.2m.4-.2h.2v.2h-.3V157m.5-.1h.2l.2.3h-.3v-.2m.5.1c.1-.1.1-.3.2-.5s.4.1.4.3h-.6m2.5,1.1a.3.3,0,0,1-.3.3h-.2l.3-.5c.1,0,.2.1.2.3m-.1-.8h0m1,.5a1.6,1.6,0,0,1,.5,1.1,1.3,1.3,0,0,1-1,1.3,2.3,2.3,0,0,0,0-2.6h.5m-.1-.3h0m.8,1.2h4.4l-.5.2-.2.3h-3.7v-.6m5,.4.3.2h.1l.2.3c.1.4.1.7,0,.8v.2h0c-.1-.1-.1-.2-.2-.2v-.2l-.4-.3a1.1,1.1,0,0,0-.8-.3h-.2l.2-.3a.7.7,0,0,1,.9-.1m-.4-.3c0-.2.1-.3.4-.3a.3.3,0,0,1,.4.2c.1.1.2.2.1.3h0l-.5-.3h-.4m0,2.6h0c0-.1-.1-.2-.1-.3s-.1-.3-.1-.4h-.1v-.2a.1.1,0,0,0-.1-.1V160h-.1l-.2-.2h.4a1.1,1.1,0,0,1,.7.2l.3.3h0l.2.3h0a1.7,1.7,0,0,1-.2,1.2l-.6.3h0c.1-.1.1-.1.1-.2h0v-.2m-3.7,1.2h.4a.5.5,0,0,1,.5.5c0,.1,0,.2-.1.2h-.4l-.4-.2h.1v-.3m-.1-.4h0a1.4,1.4,0,0,1-.2-.7,1.2,1.2,0,0,1,1-1.3c.4,0,.7.3.9.8l-.6-.3c-.5-.1-1,.4-1.1,1.1v.4m-2-.5a5.3,5.3,0,0,1-.1,1.3l-.2-.2a5.6,5.6,0,0,0,.1-.7h0v-.7a1.9,1.9,0,0,0-.3-.9h.1a4,4,0,0,1,.3.9h.2a2.6,2.6,0,0,1,.5-.9l.7-.5a3.1,3.1,0,0,1-.5,1,1.2,1.2,0,0,1-.8.5h0Zm-.9,1c0-.2-.2-.3-.5-.4h.9v.6Zm-.6-.1h0m-.4-3.3h-3.6c0-.1-.1-.2-.2-.3l-.4-.2h4.2c0,.1-.1.1-.1.2s.1.3.1.4m1.1-1.7h0a1.8,1.8,0,0,0-.4,1.3,1.8,1.8,0,0,0,.5,1.3,1.3,1.3,0,0,1-1-1.3,1.4,1.4,0,0,1,.9-1.3m-.3-.3h0Zm.6,1.3h.1l.3.2v.2c0,.2-.1.4-.3.4l-.2-.2v-.5m.9,1.8-.4.6a.6.6,0,0,0-.2-.5h.6Zm-.9-.3.2-.2h.2l-.3.3c0-.1-.1-.1-.1-.2m0,.9H234l-.2-.2a1,1,0,0,0-.5-.4h.7l.2.5m.4-1.4h-.1c.2-.1.3-.1.4-.3h0c-.1.2-.1.4-.2.5s-.1-.1-.1-.2m-.4-.2v.2a.3.3,0,0,1-.3.3.8.8,0,0,1-.2-.6h.2a.2.2,0,0,0,.2.2m-.4-.3v-.6h.2v.2l-.2.3m-.4,1.1h-1a1.4,1.4,0,0,0-1.1-.6h1.6l.5.6m-.6.8h0l-.3-.6h.1a2.1,2.1,0,0,0,.2.6m-1.8-1.4h0Zm-1.5.4h.6l-.2.2h-.1v.2h0a.4.4,0,0,0-.1.3h-.1v1.6h.2a2.1,2.1,0,0,1-1.3-.8h0a.7.7,0,0,1-.1-.5h0v-.2a.4.4,0,0,1,.1-.3v-.4h.1l.2-.3h.4m.4,2.3h0v-.3h0c-.1-.1-.1-.2-.1-.4a.8.8,0,0,1,.1-.4h0v-.3h.1l.2-.3h0l.2-.2a1.1,1.1,0,0,1,.8-.2,1.6,1.6,0,0,1,1.4,1.6c0,.2,0,.3-.1.4h0v-.4a1.4,1.4,0,0,0-1.2-1.5,1.4,1.4,0,0,0-1.2,1.5,1.6,1.6,0,0,0,1.1,1.6h0l-.8-.2-.3-.3h0l-.2-.3m2.1-1-.6-.2c-.3,0-.6.1-.6.4h0a.1.1,0,0,1-.1.1h0v.2h0v.2h.1v.2h0a1.2,1.2,0,0,1-.4-1.1c0-.7.4-1.3.9-1.3a1.1,1.1,0,0,1,1,1.2H232m.3.4h-.1c-.1,0-.1,0-.1.1H232v-.2h0l.2.2m-.9-.1H231l.4-.2a.6.6,0,0,1,.5.2h-.5m.3.4h0m-.6.5h0m.4.3h.4v.2h-.4m.4-.5h0c0-.1,0-.1.1-.1h-.1m.3.4h0m.7-.4h.2a.1.1,0,0,1-.1.1h-.1m.1-.4h-.2v-.4h.2v.2l.6.4Zm.3-.6a1.6,1.6,0,0,1-.4-.9l.8.5.6.8h0a1.4,1.4,0,0,1-1-.5m.9,0h0m2.1-.9a1.4,1.4,0,0,0-.2.6h-.3l.3-.6Zm-.1-.2a1,1,0,0,1,.1-.4v-.2h1.2a1.1,1.1,0,0,0-1,.6Zm-.1,1.4h-.3a.6.6,0,0,0-.6.3h-.3v-.2l.7-.4h.4v.2m-1.2.5h.2a.6.6,0,0,0,.2.5h-.4v-.6m.4.1a.5.5,0,0,1,.5-.4c.2,0,.5.2.5.4h-.6a.1.1,0,0,1-.1.1h-.2a.4.4,0,0,1-.1-.3m.3.4h1v.2c0,.2-.2.4-.6.4a.5.5,0,0,1-.5-.4.4.4,0,0,1,.1-.3m1.6-.6h-.3v-.2c.1-.5.5-1,.9-.9s.6.4.6.9h0v.2h0v.2h-.1l-.2.2h0a.7.7,0,0,0-.7-.7m.6,1.1.3-.2h0c.1-.1.2-.1.2-.2h0a2,2,0,0,0,.4-.8h0v-.4a1.2,1.2,0,1,0-2.4,0v.3h0v-.4a1.5,1.5,0,0,1,1.4-1.6.8.8,0,0,1,.7.2l.2.2h.1l.2.3h0a.4.4,0,0,1,.1.3h.1v.8h0a.4.4,0,0,0-.1.3h-.1l-.2.3h0a.2.2,0,0,0-.2.2l-.7.2h0m.1-3.5h0m.9,3.2h.1l.2-.3h0c0-.1.1-.2.1-.3h0a.4.4,0,0,0,.1-.3V161h0a.4.4,0,0,1-.1-.3h-.1v-.2c0-.1-.1-.1-.1-.2h.9c0,.1.1.2.1.3h.1c.1.1.1.3.2.4s.1.2.1.3h0v.4h-.1a1.9,1.9,0,0,1-1.2.8h-.1m-2.5-3.2h-.2l-.8.6h0l.5-.6Zm-1.6-2.3h.1v.2h-.2m-.3-.1V157h.4Zm-.1.3a1.7,1.7,0,0,1,.6,1h-.2l-.2-.2v-.2a.8.8,0,0,0-.2-.5h0m-.4-.3-.5-.2h.7Zm-.7.6a1.6,1.6,0,0,0-.4.7h-4.4c-.1-.2-.2-.2-.4-.3h-.1a.5.5,0,0,0-.5.3h-2v-.7Zm-4.8,1h-.5l-.4.3h-.1a.4.4,0,0,1,.1-.3l.4-.2h.1c.2,0,.3.1.4.3m-1,.8.2-.3h0l.4-.2h.4l.5.2c0,.1.1.2.1.3h-.2a1.1,1.1,0,0,0-.8.3l-.3.3h-.1c0,.1-.1.2-.1.3h-.1v-.2a1.3,1.3,0,0,1,.1-.8m.3,1h0v-.3h.1l.3-.3a.8.8,0,0,1,.6-.2h.5l-.2.2H229l-.2.2h0c-.1,0-.1.1-.1.2h-.1c-.1.1-.1.2-.2.4v.3h0v.2h.1v.2h.1c-.2-.1-.5-.1-.6-.3a1.2,1.2,0,0,1-.2-1.2m.2,1.5a1,1,0,0,0,.7.2,1,1,0,0,0,.5.4h-3.8v-.6Zm1.6.9h.8a1.6,1.6,0,0,0,.9.3h1a.5.5,0,0,0,.5.3h-7.3a1.3,1.3,0,0,0-.1-.6Zm3.1.2h0m.8,0h0l.4-.2h.5l.5.4V163h.4a.7.7,0,0,0,.7.6.8.8,0,0,0,.7-.4l.5.2h.5a1.1,1.1,0,0,0,.8-.3h5.1a1.3,1.3,0,0,0-.1.6H232.9a.5.5,0,0,0,.5-.4m6.4-.5.5-.4a.7.7,0,0,0,.6-.2h2.7v.6Zm1.4-.8a1.4,1.4,0,0,0,.2-.6h2.2v.6Zm.3-.9v-.2l.2-.3h2a1.5,1.5,0,0,1-.1.6Zm.3-.8a1.3,1.3,0,0,0-.1-.6h1.9v.6Zm-.2-.9h-.1l.2-.3a.4.4,0,0,0-.1-.3h1.9a1.3,1.3,0,0,1,.1.6Zm-7.8-7.5a4.2,4.2,0,0,1-.3-1.3.5.5,0,0,1,.1-.3c.3.2.3.9.3,1.2a.6.6,0,0,1-.1.4m-.1,4.5-.3.2-.3-.6.6.4m-.3-6.1a2.5,2.5,0,0,1-.6-1.4v-.2a2.5,2.5,0,0,1,.6,1.3v.3m-.1,5.1h-.1c-.2,0-.9-1-.9-1.1v-.2a3.8,3.8,0,0,1,1,1.2m-1.5-2.9a3,3,0,0,1,.7,1.3,2.7,2.7,0,0,1-.7-1.3m.2,1.8v.5a2.8,2.8,0,0,1-.4-1.2v-.4a2.5,2.5,0,0,1,.4,1.1m.3.6a3.8,3.8,0,0,1,.6,1.3v.3c-.5-.1-.5-.9-.7-1.3Zm.4-6h-.1c-.3,0-.7-1.1-.7-1.4h0c.2,0,.8,1.1.8,1.4Zm-.6,3.1v.2c-.3-.1-.7-1-.7-1.4h0a3.3,3.3,0,0,1,.7,1.3m-6.8,8.6h1.8l.3.3v.2h-2.1v-.5m2.1.8c0,.2.2.4.3.6h-2.4v-.6Zm-1.7,5.4.3,1.3h-1.1a5,5,0,0,1-.2-1.2Zm-.5,1.6.9.2c.1.4.3.7.4,1.1h-1.1l-.2-.4a2.4,2.4,0,0,1-.2-.9Zm.3-3.7c0-.2-.1-.5-.1-.8h18.1c0,.3-.1.6-.1.8a25.6,25.6,0,0,1-1.5,5.6h-7.1l.5-.6-.2-.6h.5l.4.6h1.1l.5-.4-.8-.7a24.9,24.9,0,0,0-.4-3.2c-.2-1.1-.7-1.7-1.4-1.7a3,3,0,0,0-1.1.4,6.4,6.4,0,0,0-1.5.8h-.1v1.1h.4l-.5,1.8h.1a2.7,2.7,0,0,0,1.2.5l-.2,1,.4.6H227a25.6,25.6,0,0,1-1.5-5.6m8.4,3.3h.3l-.2,2.3h-.1l-.5-.7Zm-1.4.1h1.1v.4a3.4,3.4,0,0,1-1-.4m1.5-.3h-1.6l.5-1.6a8.2,8.2,0,0,1,1.9-1c.5-.2.8.6.8.6h.2c0-.1-.3-1.1-1-.9a11.1,11.1,0,0,0-2,1.1h-.4v-.8a5.7,5.7,0,0,1,1.5-.8,1.9,1.9,0,0,1,1-.3c.4,0,.9.1,1.2,1.4a18.1,18.1,0,0,1,.4,3.2h0l.6.6-.2.2h-.9a6.1,6.1,0,0,1-.5-1.2h0s-.2-.4-1-.4H234m1.5,1.1h-.4l-.2-.6.5.2a4.3,4.3,0,0,1,.1.5m-1-.8h.2l.3,1.5-.4.7h-.1V168h.1m6.4,4.4.4.4h-.7l.3-.4m.2-.2.4-.6v-.2h1.2c-.3.5-.5,1-.7,1.4h-.4l-.6-.6m.6-1,.6-1.4h1.1a5.8,5.8,0,0,1-.5,1.4Zm.7-1.6a4.9,4.9,0,0,1,.4-1.1l.9-.2h.2c-.1.3-.1.7-.2.9s-.1.3-.2.4Zm1.2-1.6h-.7l.3-1.3h1a5,5,0,0,1-.2,1.2h-.4m-.3-1.5a11.5,11.5,0,0,0,.2-1.4h.9a6.8,6.8,0,0,1-.2,1.4Zm1,1h.5l-.5.3v-.3m0-.2a1.3,1.3,0,0,0,.1-.6H246l-.4.3-.4.3Zm.1-2.4h-.8v-.2a3.1,3.1,0,0,0,.1-1l.7-.2h.1a6.6,6.6,0,0,1-.1,1.4m1-10.9a1.7,1.7,0,0,1-.9.6h-1a1.8,1.8,0,0,1-.4-.9l.5-.4h.7l.3.3a2.4,2.4,0,0,1,.8.6m-8,.2a.1.1,0,0,0-.1.1h.1m-.7.3h0m-.3.3h-.2l-.8-.6c0-.1.1-.2.2-.3Zm-.4.2-.7.5c-.1-.3-.1-.7-.2-1Zm.6-.2.2.2v-.3h.5l.3-.2h1.9a7.1,7.1,0,0,1,2,.4,5.8,5.8,0,0,0,1.8.4h1.4a1.9,1.9,0,0,0,.9-.5,4,4,0,0,1-1,2.2,1.3,1.3,0,0,1-1,.4h-.1l-2.2-.3-1-.4h0a3.6,3.6,0,0,0-1.5-.2h-1.1l-1.7.5-.9-.5h-.1a5.5,5.5,0,0,1,1.7-1.3m-1.5-1H235c-.3,0-.5-1-.6-1.3v-.3a5.2,5.2,0,0,1,.6,1.3Zm-.3-1.7a3.9,3.9,0,0,1-.8-1.4h0a3.5,3.5,0,0,1,.8,1.3Zm-.5-1.8h-.1a3.6,3.6,0,0,1-.8-1.2h0a3.4,3.4,0,0,1,.9,1.2Zm-.6-1.5h-.1c-.3,0-.9-.9-1-1.2s1.1.9,1.1,1.1Zm-.9-1.4c-.1,0-1.2-.6-1.2-.9s1,.4,1.4.9Zm-1.8-.7-.2-.4c0-.2.4-.5.6-.5s.5,0,.5.3-1,.1-.9.6m.1.2c.2-.1,0-.4.3-.4h0a2.2,2.2,0,0,1-.8,1.3h-.1a3.7,3.7,0,0,1,.5-1.1h.1m-11.4,5h0l.5-.3.6-.2h0a1.1,1.1,0,0,0,.1.5Zm5.5,11.8a3.1,3.1,0,0,0,.1,1v.2h-.9a6.6,6.6,0,0,0-.1-1.4h.2l.7.2m-.9,2.2a1.3,1.3,0,0,1,.1.6h-1.8v-.2a.8.8,0,0,1-.1-.4Zm-1.7.8.6.5h-.6c0-.2-.1-.4-.1-.6Zm1,.8,1.1.5h-2a1.1,1.1,0,0,0-.1-.5Zm1.1.8c.1.2.1.4.2.5h-2a4.3,4.3,0,0,1-.1-.5Zm.2.8c.1,0,.1.1.1.2v.3h-2v-.4Zm.3.7c.1.2.1.4.2.6h-2a1.4,1.4,0,0,0-.2-.6Zm.3.8.3.6h-2l-.3-.6Zm.4.8a1.4,1.4,0,0,0,.2.6h-2c-.1-.2-.1-.4-.2-.6Zm.3.8.3.6h-2l-.3-.6Zm.5.8h0a3.1,3.1,0,0,1-1.9.2V173Zm-1.3.5a3.2,3.2,0,0,0,1.4-.3c.1.1.1.3.2.4h-1.6m1.8.3.3.6h-2a2.1,2.1,0,0,0-.4-.6Zm.5.8.2.3.2.2H226l-.4-.5Zm.4.2-.2-.2h1.6l-1,.8a2.1,2.1,0,0,0-.4-.6m-.3-.4-.8-1.3h1.4l1.2,1.4Zm-.2-2.9a3.7,3.7,0,0,1-.5-1.1h.6l1.3,1.9,1.1.7,2.1.5,1,.6h.4l-.4.3h-.6l-.3.5-.2.4h-.5l-.2.3a21.3,21.3,0,0,1-3.8-4.3m10.6,2.4,1.2-.6h.5l-1.3,1.5-.2-.7Zm2.3-.9h1.4l-.8,1.3h-1.8l1.2-1.4m.5,1.6c-.1.1-.2.1-.2.2a2.1,2.1,0,0,0-.4.6l-1-.8Zm-.2.5.2-.2.2-.3h2.1l-.4.5h-2.1Zm.6-.7.3-.6h2.1a2.1,2.1,0,0,0-.4.6Zm.5-.8.2-.4a3.1,3.1,0,0,0,1.3.3h-1.5Zm.3-.6h2v.2a3.1,3.1,0,0,1-1.9-.2m.1-.2.3-.6h2l-.3.6Zm.4-.8.3-.6h2l-.3.6Zm.4-.8.3-.6h2l-.3.6Zm.4-.8a1.4,1.4,0,0,1,.2-.6h1.9a1.4,1.4,0,0,1-.2.6Zm.3-.8a.4.4,0,0,1,.1-.3c0-.1,0-.2.1-.2h1.9v.4h-2Zm.2-.8c.1-.1.1-.3.2-.5h1.9a4.3,4.3,0,0,1-.1.5Zm.2-.8,1.1-.5h.9a.7.7,0,0,1-.1.5Zm1.4-.7h.1l.6-.5h.1a1.3,1.3,0,0,0-.1.6Zm.6-.8h-1.7v-.6h2a.6.6,0,0,0-.1.4l-.2.2m-1.6-3.3h-.8v-.6l.8-.5v1m8-10.8h0m-16.7-7.6a1.1,1.1,0,0,1,.5-1l3.1-.5,1.2.2c.4.2,8.8,5.1,8.8,6.2s-.1.2-.1.3,2,.8,2,1.2-.2.1-.2.1a21.9,21.9,0,0,1-2-1.1h-.4l.2.3c.7.3,1.4,1,2,1.1a2.4,2.4,0,0,1,1.5.6h-.2l-.5.2c-.6-.2-2.5-1.3-2.7-1.4h0c0,.4,1,.8,1.2.8h-.2l-1.1-.3h-.4l-.9-.3v-.4h0l.6.2h.4c0-.2-.5-.2-.6-.3l-.6-.5a.1.1,0,0,0-.1.1v.2h-.1l-.2.2H247c-.3,0-.1.2-.4.2s-1.4-.8-1.6-.8l-.4.2c-.3,0-1.1-.4-1.1-.9h-.2c-.5,0-.8-.8-1.4-.8s-1.1-1-1.1-1.8l.2-.2c.2,0,.6.5.8.5s.1-.1.1-.2-.2-.2-.2-.3v-.2l1.4.7c.7.2,1.2,1.3,1.7,1.3s.2-.1.2-.1v-.3c.9,1,1.6,1.7,2.4,1.7s.3,0,.3-.2-.7-.3-.7-.4-1.4-.5-1.4-1.1a.2.2,0,0,1,.2-.2c.4,0,2.1,1.6,2.9,1.6s.2,0,.2-.1-1.3-.9-1.5-1-.8-.3-1-.6h-.1c-.2-.5-.1-1.3-.9-1.3s-.1.1-.1.2.7.5.7.6v.2c-.4-.3-1-.9-1.4-.9h-.3c0,.2.6.8.7.9s-.9,0-1.1-.4-1.1-1.4-1.6-1.4H242l.8.5h0l-2-.4-.3-.2h.2l.8.2h.3c-.1-.2-.5-.5-.5-.7h.8c0-.2-.6-.4-.6-.5h.1c.5,0,1.9,1.2,2.4,1.2h.3c0-.5-1.2-.8-1.4-.9s-1.2-.9-1.9-.9-.1.9-.6.9-1-.2-1-.7.3-.1.3-.4l-.4-.2c-.3,0-.4.5-.8.5l-.4-.2c.2-.1.6,0,.6-.3s-.1-.3-.2-.3-1,.7-1.2.7h-.5l-.3.2h.9c0,.3.3.5.3.6s-.6,0-.6.4.8.1.8.5l-.4.3c0,.1.2.3.2.5s-.6-.1-.6.2l.2.3c0,.3-.4.3-.5.3h-.3c.3,0,.4-.3.4-.5s-1-1.5-1-2.3m.5,4.5a1.7,1.7,0,0,1,.2.5c0,.2-.1.6-.3.6h-.2l.3-1m-1.2-2.4-.3.3h.3c.7,0,.9.6.9,1.1a1.6,1.6,0,0,1-.3.9.6.6,0,0,1-.1-.4,1.1,1.1,0,0,0-.1.5h-.1c0-.1-.1-.2-.2-.3s0,.4-.1.5l-.2-.3c-.1.1,0,.3-.2.5a4.3,4.3,0,0,0-.1-.5c-.1.2-.1.4-.3.6a4.3,4.3,0,0,0-.1-.5.4.4,0,0,1-.1.3l-.5-.6c.2-.1.1-.2.1-.2v-.3c0-.1.1-.2.1-.3h-.2l-.5-.4.3-.2H233l.4-.4c.2,0,.2.7.4.8l.6.2c.3,0,.2-.2.2-.3s.2-.5.2-.6l-.3-.5h.7m-1.9-1.4c.1,0,.5.1.5.4v.4c0,.3.7.9.9,1.1a.7.7,0,0,0-.2.7h-.1a.6.6,0,0,0-.6-.3c0-.3-.2-1.2-.9-1.2h-.4l-.6-.3a.4.4,0,0,0,.1-.3v-.3h0l1.4-.3M216.4,152l-.8.3h-.1v-.2c0-.3.9-.6.9-.6s2-.9,2.7-1.2.1-.1.1-.2h-.1c-.9,0-1.8,1.1-2.3,1.1h-.2c.4-.7,1.1-.9,1.6-1.3s.8-1.1,1.5-1.5a41.5,41.5,0,0,1,5.6-3.7l2-1a7.7,7.7,0,0,1,2.4-.6c.5,0,2.4.3,2.4,1.3a.8.8,0,0,1-.2.6l-.3.2a.4.4,0,0,0-.4.4v.2c-.4.2-.6.3-.6.6l.2.5c0,.2-.3.3-.3.3s-.3,0-.3-.2.3-.2.3-.4l-.5-.3c0-.4.8-.3.8-.6s-.6-.1-.8-.2.6-.4.6-.7-.3-.1-.3-.1h.7c.2,0,.4,0,.4-.3s0-.2-.2-.2-.3.3-.5.3-.8-.7-1.2-.7-.2.2-.2.3.5.3.6.3l-.4.2c-.4,0-.4-.5-.8-.5l-.4.2c0,.2.4.1.4.3s-1,.7-1.1.7,0-.8-.7-.8-1,.4-1.7.7-1.2.3-1.5,1h.3c.3,0,2.1-1.2,2.4-1.2h.1c-.1.1-.6.3-.6.5h.8l-.5.7h.3l.7-.2h.3c-.2.4-.7.3-1,.4l-1.3.3h0l.8-.5h-.3c-.5,0-1.2.9-1.5,1.3s-.7.4-1,.5h-.1c0-.2.7-.8.7-.9s-.3-.2-.3-.2-1,.7-1.5.9h0c0-.3.7-.4.7-.7s-.1-.1-.2-.1a.6.6,0,0,0-.6.4v.4c0,1.2-2.9,1-2.9,2.1h.2c1,0,2.5-1.5,2.9-1.5s.2.1.2.2-1.2.4-1.4,1.1-.7,0-.7.4v.2h.5c.6-.1,1.6-1.2,2.1-1.6v.2c0,.1,0,.2.1.2s.9-.7,1.3-1.1a7.7,7.7,0,0,1,1.9-.8h.1c0,.1-.3.3-.3.4s.1.2.2.2.5-.5.7-.5.2.2.2.3-.8.8-1.1,1.4,0,.4-.1.4h-.2c-.4,0-.5.5-.9.7s-.3,0-.4,0a2.9,2.9,0,0,1-1.2.7h-.4a4.5,4.5,0,0,1-1.5.6c-.3,0-.2-.2-.5-.2a14.2,14.2,0,0,1-2.7,1.2h-.4c.3-.2.8-.3,1.1-.8h0a16.7,16.7,0,0,1-2.3,1.1h-.2m2.8,3h-.6l-1.9-2.3,2.7,1.1a.4.4,0,0,1,.1.3.5.5,0,0,0,.2.4,59.9,59.9,0,0,0,5.4,4.3v.2l-5.2-4v.2l2.7,2a9.2,9.2,0,0,0-.1,1.8v1.3l-3-2.1v-1l.2-2.1h-.4m4.4,3,.7.5h-1.7V158Zm-1-.2a4.3,4.3,0,0,1,.1-.5l.6.5Zm1.7,1v.6h-1.7v-.5h1.7Zm0,.8v.6h-1.6c0-.2-.1-.4-.1-.6Zm0,.8a.9.9,0,0,0,.1.5h-.8l-.8-.5Zm.1.8c0,.1.1.2.1.4l-.6-.4Zm-2.7,14.7a14.9,14.9,0,0,1-2.9-6.2c-.1-.5-.5-3.5-.6-4.5v-4.4l.2-2.3h-1l-2.1-2.5,2.9,1.1c.1,0,.1.1.1.2s0,.3.1.4l.6.4h.1l6,4.2v.2l-6.2-4.2h-.1l3,2.1a7.8,7.8,0,0,0,.1,1.3,20.6,20.6,0,0,1-2-1.9h-.2a15.1,15.1,0,0,0,2.2,2.1,27.5,27.5,0,0,0,.3,3.8,12.8,12.8,0,0,1-1.9-4h-.2a15.4,15.4,0,0,0,2.1,4.4,22.1,22.1,0,0,0,.7,3.2,31.7,31.7,0,0,0,1.6,3.6l-1.2-.5c-3.3-1.5-3.9-11.1-3.9-11.2h-.2c0,.1.6,9.7,4,11.4l1.4.4a13.6,13.6,0,0,0,1.2,1.8l1,1.3-.3.2a7.4,7.4,0,0,1-3.7-.1l-.9-.5-.2-.2m5.3,2.8a6.8,6.8,0,0,1-4.7-2.1l.4.2a5.6,5.6,0,0,0,2,.3l1.8-.2a10,10,0,0,0,3.3-2.3l2.3,2.2a10.8,10.8,0,0,1-5.1,1.9m4.7,2.6h-1.4a20.3,20.3,0,0,0,2-4.3l1.1.8c-.2,1.4-.5,3.5-.6,3.7h-.1l-.4-.2-.6-.2m.9.6h-.4l-.4.2v-.6h.4l.3.2m.4,1h-.8c-.1,0-.5-.1-.5-.2s0-.2.1-.2l.5-.3h.3a.8.8,0,0,0,.4-.4h0c.1-.3.5-2.9.6-3.7h.1c-.1,1.6-.2,4-.3,4.7s-.1.1-.2.1Zm.3.1-.2.2h0v-.2Zm-.3.7h0v-.2h.2a.2.2,0,0,1,.2-.2h1.8c0,.1.1.2.2.3H233Zm2.5-.6h.1c0,.1.1.1.1.2h-.1v-.2m.2,1c-.2.2-.9.2-1.1.2h-.1a2.1,2.1,0,0,1-1.4-.3h2.6m1.3-1.5h-.1c-.2.3-.9.3-1.1.2h-.4a.9.9,0,0,0-.1-.5h1.6c.1,0,.1.1.1.2m1.4-1.4h-2.5l-.2-.9h2.2l.5.7m-.6-.9h-2.1a6.8,6.8,0,0,0-.2-1.4h1.7l.6,1.4m-1-2.3.3.7h-1.6c0-.3-.1-.6-.1-.8l.7-.6h.5c0,.2.1.3.1.4Zm5.2.7a9.5,9.5,0,0,1-5-1.6h-.6l2.7-2.5a9,9,0,0,0,3.3,2.3l1.8.2a5.6,5.6,0,0,0,2-.3l.5-.3a6.5,6.5,0,0,1-4.7,2.2m9.5-20.2h-1l.2,2.2v4.4c0,.2-.1,1.2-.2,1.8a2.1,2.1,0,0,0-.1.6,15.4,15.4,0,0,1-3.3,8.5l-1,.5a7.4,7.4,0,0,1-3.7.1l-.3-.2,1-1.3a15.9,15.9,0,0,0,1.1-1.8l1.5-.4c3.4-1.7,4-11.3,4-11.4h-.2c0,.1-.6,9.7-3.9,11.2l-1.2.5a31.7,31.7,0,0,0,1.6-3.6,14,14,0,0,0,.6-3.2,14,14,0,0,0,2.2-4.4h-.2a12.8,12.8,0,0,1-1.9,4c.2-1.4.2-2.8.3-3.8a25,25,0,0,0,2.2-2.1H249a20.6,20.6,0,0,1-2,1.9c0-.6.1-1.1.1-1.3l3-2.1H250l-6.2,4.2v-.3l6-4.1h0a1.5,1.5,0,0,0,.9-1l1.5-.5,1.4-.5-2.1,2.4" transform="translate(-14.3 -2.8)" fill="#725641"/><path d="M226.6,156h-.1l-.2.2h-.5v-1.1h-.3v.9h1Z" transform="translate(-14.3 -2.8)" fill="#725641"/><path d="M226.8,155.1h0" transform="translate(-14.3 -2.8)" fill="#725641"/><path d="M227.1,156H227v-.6h-.1l-.2.2h.1v.4h-.2l.5-.2Z" transform="translate(-14.3 -2.8)" fill="#725641"/><path d="M227.1,154.9h0v1h.4l.3-.3a.6.6,0,0,0,.1-.4.4.4,0,0,0-.1-.3h-.5v-.5h-.2m.2.5h.1a.1.1,0,0,1,.1-.1h.2v.5l-.2.2h-.2Z" transform="translate(-14.3 -2.8)" fill="#725641"/><path d="M228.4,155.7h.3l.2-.3h-.1v.2h-.4c0-.1-.1-.2-.1-.3h.6a.4.4,0,0,0-.1-.3.1.1,0,0,0-.2,0h-.3a.8.8,0,0,0-.1.4.4.4,0,0,0,.1.3h.2m-.1-.7h0" transform="translate(-14.3 -2.8)" fill="#725641"/><path d="M229.4,155.6h-.1V155h.2c-.1,0-.1,0-.1.1h-.3v.5h.3Z" transform="translate(-14.3 -2.8)" fill="#725641"/><path d="M229.7,154.9h.1v.7h.2v-.5h0v-.2h-.2c0,.1,0,.1-.1.1h0" transform="translate(-14.3 -2.8)" fill="#725641"/><path d="M230.4,155.3c-.1,0-.1.1-.1.2h.4a.1.1,0,0,0,.1.1h.1v-.4h-.1l-.2-.2h-.2v.2h.4v.2h-.3m.3.2h-.2v-.2h.1Z" transform="translate(-14.3 -2.8)" fill="#725641"/><path d="M231.2,155.8h.5v-.6h0v-.2h-.2v.2h-.4c0,.1-.1.2-.1.3v.2a.1.1,0,0,0,.1.1m.1-.5h.1a.1.1,0,0,0,.1.1h0v.4h-.2v-.2c0-.1,0-.2.1-.2" transform="translate(-14.3 -2.8)" fill="#725641"/><path d="M240.9,156h.4V155h-.2v.2h-.5a.4.4,0,0,0-.1.3c0,.2,0,.3.1.4s.1.2.3.2m-.1-.8h.2v.6H241c-.1-.1-.2-.1-.2-.2a.4.4,0,0,1-.1-.3c0-.1,0-.2.1-.2" transform="translate(-14.3 -2.8)" fill="#725641"/><path d="M242.4,155.8h0v.5h.2v-.5h.3v.4h.2V156c0-.1,0-.2-.1-.2s0-.1-.1-.1h-.2a.1.1,0,0,1-.1.1h-.2Z" transform="translate(-14.3 -2.8)" fill="#725641"/><path d="M241.9,156.4h.2c.1-.1.2-.1.2-.2h-.4l-.2-.2a.5.5,0,0,0-.1-.3l.6.3h0a.4.4,0,0,0-.1-.3l-.2-.2h-.3a.4.4,0,0,0-.1.3c0,.2,0,.3.1.4s.1.2.3.3m-.2-.9h0" transform="translate(-14.3 -2.8)" fill="#725641"/><path d="M239,155.8h.1l.4-.2a.7.7,0,0,0,0-1l-.5-.2-.4.2a.8.8,0,0,0-.2.5c0,.2.1.3.2.5l.4.2m-.2-1.1.2-.2h0l.3.2c.1.1.1.2.1.4s0,.3-.1.4h-.5c-.1-.1-.1-.2-.1-.4s0-.4.1-.4" transform="translate(-14.3 -2.8)" fill="#725641"/><path d="M240.3,155.8h-.1a.1.1,0,0,0-.1-.1h0v-.4h-.2v.6h.4Z" transform="translate(-14.3 -2.8)" fill="#725641"/><path d="M237.1,154.9h0l.3.5h0v.2h-.2c-.1,0-.1,0-.1.1h.3a.4.4,0,0,1,.1-.3l.2-.7a.1.1,0,0,1,.1-.1h-.2v.4l-.2-.3h-.2" transform="translate(-14.3 -2.8)" fill="#725641"/><path d="M250.6,158.4l1.1-.9.8-.6.3-.2h0v-.2l-2.4,1.5Z" transform="translate(-14.3 -2.8)" fill="#725641"/><polygon points="201.8 153.9 204.1 155.6 204.2 155.1 201.8 153.6 201.8 153.9" fill="#725641"/><polygon points="205.1 151.4 202.9 150.1 202.9 150.4 205.4 152.2 205.1 151.4" fill="#725641"/><path d="M236.2,172.5h.1v-.7h-.5v-.7h.1l-.6-.2v.2h-.5c0,.1-.1.2-.1.4s.1.2.1.4h0a.4.4,0,0,1-.1-.3.6.6,0,0,1,.1-.4h.1l-.6-.2v.2h-.6c-.1.1-.1.2-.1.4a.8.8,0,0,0,.1.4h-.7c0,.1-.1.2-.1.4h-1l.2.6h.3l.3.5h3.6l.7-.7h-.7Zm-3.1-.5v-.2h.7v.4h-.7V172m.2.6h0Zm.5,0h0Zm0-1.2a.4.4,0,0,1-.1-.3c0-.1,0-.2.1-.2h.6v.5Zm.5,1.2h0Zm.5,0h0Zm.1-.4h-.6c-.1,0-.1-.1-.1-.2h.7v.4m0-.8v-.5h.7v.2a.4.4,0,0,0,.1.3Zm.5,1.2h-.3v-.2h.2Zm.3,0h0Zm.4-.4h-.7v-.4h.7v.4" transform="translate(-14.3 -2.8)" fill="#725641"/><path d="M232.7,146h.2l.2.2c.1,0,.1-.1.1-.2h-.6v.2" transform="translate(-14.3 -2.8)" fill="#725641"/><rect x="190" y="131" width="0.6" height="59.58" fill="#725641"/><rect x="190" y="131" width="356.1" height="0.59" fill="#725641"/><rect x="545.5" y="131" width="0.6" height="59.28" fill="#725641"/><rect x="190" y="190" width="356.1" height="0.58" fill="#725641"/><rect x="249" y="131" width="0.6" height="59.58" fill="#725641"/><rect x="396.5" y="131" width="0.6" height="59.58" fill="#725641"/></svg>