<?xml version="1.0" encoding="utf-8"?>
<!-- Generator: Adobe Illustrator 24.3.0, SVG Export Plug-In . SVG Version: 6.00 Build 0)  -->
<svg version="1.1" id="Layer_1" xmlns="http://www.w3.org/2000/svg" xmlns:xlink="http://www.w3.org/1999/xlink" x="0px" y="0px"
	 viewBox="0 0 554 404" style="enable-background:new 0 0 554 404;" xml:space="preserve">
<style type="text/css">
	.st0{fill:none;stroke:#44303C;stroke-width:4;stroke-linecap:round;stroke-linejoin:round;}
</style>
<path class="st0" d="M377,3.7l46,18.1c3.6,1.4,3.8,6.5,0.3,8.2L411,36.1c-1.5,0.8-2.5,2.3-2.5,4v7.1c0,1.2,0.5,2.3,1.3,3.2l9.9,9.7
	c0.5,0.5,0.9,1.1,1.1,1.8l11.4,33.6c0.2,0.5,0.2,0.9,0.2,1.4v34.5l0,0l22.3,43.9c0.9,1.9,3,2.8,5.1,2.3l44.4-10.9l0,0l10.6,10.5
	c0.8,0.8,2,1.3,3.1,1.3h6.6c2,0,3.8,1.4,4.3,3.4l11.1,43.7l10,39.2c0.9,3.4-2.4,6.5-5.7,5.4l-26.7-8.8c-0.9-0.3-1.9-0.3-2.8,0
	l-65.4,21.4c-2.6,0.9-3.8,3.8-2.6,6.3l9.1,17.9c0.3,0.6,0.5,1.3,0.5,2v34.2l0,0l7.5,7.3c2.2,2.2,1.6,5.8-1.2,7.2l-17.6,8.7
	c-0.4,0.2-0.9,0.3-1.4,0.4l-81.5,11.5c-1,0.1-1.8,0.6-2.5,1.2l-10.9,10.7l0,0l-35.6-11.7c-0.2-0.1-0.4-0.1-0.6-0.2l-20.8-10.2
	c-1.7-0.8-3.8-0.5-5.1,0.8l-7.4,7.3c-1.4,1.3-3.4,1.7-5.1,0.8l-19.7-9.7c-0.9-0.4-1.9-0.6-2.8-0.4l-55,10.8c-2,0.4-3.9-0.6-4.9-2.4
	l-8.4-16.6c-1.1-2.2-3.8-3.1-6-2l-88.6,43.6c-1.8,0.9-4,0.5-5.4-1.1l-69.1-79.3c-0.2-0.3-0.4-0.6-0.6-0.9l-8.4-16.5
	c-1.5-3,0.6-6.5,4-6.5h36.1c2.5,0,4.5-2,4.5-4.5v-50.6c0-2.2,1.6-4.1,3.8-4.4l61.4-10.1c3.1-0.5,4.8-4,3.1-6.7l-31.1-51
	c-0.8-1.3-0.9-3-0.2-4.4l9.6-18.9c0.8-1.5,2.3-2.4,4-2.4h7.4c1.2,0,2.3-0.5,3.1-1.3l21.3-21c0.8-0.8,2-1.3,3.1-1.3H153
	c2.5,0,4.5-2,4.5-4.5V109c0-0.7,0.2-1.4,0.5-2l10.2-20.1c0.8-1.5,2.3-2.4,4-2.4h16.7c2.5,0,4.5-2,4.5-4.5V56.3c0-3.3,3.5-5.5,6.5-4
	l16.5,8.1c0.6,0.3,1.3,0.5,2,0.5h21c1.2,0,2.3-0.5,3.1-1.3l10.6-10.5l9.4-9.2c1.5-1.5,3.8-1.7,5.6-0.6l29.8,19.6
	c1.8,1.2,4.1,0.9,5.6-0.6l5-4.9c2.2-2.1,5.8-1.5,7.1,1.2l5.7,11.3c1.5,3,5.8,3.3,7.7,0.5l18.3-27.1c0.8-1.2,2.2-2,3.7-2h6.4
	c1.9,0,3.6-1.2,4.2-3l9.4-27.8C372,4,374.6,2.8,377,3.7z"/>
</svg>
