<svg xmlns="http://www.w3.org/2000/svg" xmlns:xlink="http://www.w3.org/1999/xlink" width="700" height="989" viewBox="0 0 700 989"><defs><clipPath id="b"><rect width="700" height="989"/></clipPath></defs><g id="a" clip-path="url(#b)"><g transform="translate(3.399 2.975)"><path d="M432.03,13l31.942,30.832L381.44,98.883l-37.2,112.709,50.5,65.763L410.705,336.5H530.441l49.205,52.349h94.441l5.354,155.65-25.295,34.931,46.62,79.176L643.531,643.8,522.5,650.506v28.224l62.5,8.1-12,22.821H527.764L522.5,766.009l39.881,37.539L530.441,995.526,481.236,972.7l33.234-72.469-155.648-20.12L255.057,766.009,13,657.305l31.942-57.752L115.38,518.98,95.44,504.263l8.032-100.693L74.207,317.687,184.619,198.178l22.618-87.187,70.439,2.608Z" transform="translate(-7.767 -13)" fill="none" stroke="#44303c" stroke-linecap="round" stroke-linejoin="round" stroke-miterlimit="10" stroke-width="5"/><path d="M-9153.28-1872.074l20.031,12-14.49,16.036v34.64l-22.365,48.615-12.5-8.765,9.325-32.749-6.417-9.724,6.417-32.016Z" transform="translate(9182.601 1882.366)" fill="none" stroke="#44303c" stroke-width="5"/><path d="M-9067.875-1880.238l19.345,33.383-8.825,21.64-26.621,14.43-7.269-7.311,2.475-28.759,9.36-13.292,8.692-2.393-6.042-12.275Z" transform="translate(9169.918 1883.499)" fill="none" stroke="#44303c" stroke-width="5"/></g><path d="M145.3,675.1l10.432,6.334,2.216,9.594,22.526,7.638L228.2,639.149l3.139,1.3,9.047-7.545-3.693-5.775,33.6-57.286L266.79,566.4l-10.155,10.246-1.846,4.005-.646,5.216L246.3,595l-10.155-.838,1.569-7.731-5.908.186-2.508,4.192-8.2-3.167L212.23,590.8l-19.848,28.131-11.54-3.26-1.385.931,14.771,15.369-2.4,8.477,1.662,3.26-3.323,3.446-7.385-3.726-15.971,8.383-8.309-4.1-2.4,17.512-8.678,1.4Z" transform="translate(-14.533 -47.944)" fill="none" stroke="#44303c" stroke-linecap="round" stroke-linejoin="round" stroke-miterlimit="10" stroke-width="4"/><path d="M226.362,645l.462.186-.139.186.323,1.025h.523l.215.745-.277-.093-.554.186.185.559-.185.093-.739.186h0l-.532-.186-.668.093-.092-.186-.739.373-.381-.28-.265-.559h.369v-.466l.554-.093-.277-.466.554-.372.277-.559.185.093.369-.186.369.093.334-.093Z" transform="translate(-20.539 -53.33)" fill="#44303c"/></g></svg>