<svg xmlns="http://www.w3.org/2000/svg" width="554" height="404" viewBox="0 0 554 404"><path d="M594.152,645l59.782,23.527-23.916,11.764v11.78l11.955,11.758,11.961,35.3V774.41h0l23.911,47.071,47.83-11.769h0l11.955,11.769h11.955l11.955,47.06L773.5,915.59,737.63,903.826l-71.741,23.527,11.955,23.538v35.285h0L689.8,997.94,665.889,1009.7l-83.7,11.769-11.955,11.769h0l-35.872-11.769L510.456,1009.7,498.5,1021.473,474.587,1009.7,414.8,1021.473,402.846,997.94,307.195,1045,235.46,962.65,223.5,939.122h47.83V880.293l71.738-11.752-35.872-58.829,11.955-23.533h11.955l23.917-23.527h23.913V750.889l11.955-23.527H414.8V692.071l23.916,11.758h23.913l11.955-11.758,11.955-11.78,35.869,23.538,11.956-11.758,11.955,23.516,23.916-35.3h11.955Z" transform="translate(-221.499 -643)" fill="none" stroke="#44303c" stroke-linecap="round" stroke-linejoin="round" stroke-width="4"/></svg>