<?xml version="1.0" encoding="utf-8"?>
<!-- Generator: Adobe Illustrator 24.3.0, SVG Export Plug-In . SVG Version: 6.00 Build 0)  -->
<svg version="1.1" id="Layer_1" xmlns="http://www.w3.org/2000/svg" xmlns:xlink="http://www.w3.org/1999/xlink" x="0px" y="0px"
	 viewBox="0 0 700 989" enable-background="new 0 0 700 989" xml:space="preserve">
<g transform="translate(3.399 2.975)">
	<path fill="none" stroke="#44303C" stroke-width="5" stroke-linecap="round" stroke-linejoin="round" stroke-miterlimit="10" d="
		M427.3,3l24.1,23.2c2.5,2.4,2.1,6.4-0.8,8.3l-75.4,50.3c-1,0.7-1.7,1.6-2.1,2.8l-35.7,108.2c-0.6,1.7-0.2,3.5,0.8,5l48.1,62.7
		c0.4,0.6,0.7,1.2,0.9,1.9l14.6,54.1c0.6,2.3,2.8,4,5.2,4h113.3c1.5,0,2.9,0.6,3.9,1.7l46,49c1,1.1,2.4,1.7,3.9,1.7H661
		c2.9,0,5.3,2.3,5.4,5.2l5.1,148.6c0,1.2-0.3,2.4-1,3.3l-22.1,30.6c-1.3,1.7-1.4,4-0.3,5.9l38.3,65c2.4,4.1-1.3,9.1-6,7.9L636.6,631
		c-0.5-0.1-1.1-0.2-1.6-0.2l-115.1,6.4c-2.8,0.2-5.1,2.5-5.1,5.4V661c0,2.7,2,5,4.7,5.3l50.2,6.5c3.7,0.5,5.8,4.5,4.1,7.8l-6.9,13.1
		c-0.9,1.8-2.8,2.9-4.8,2.9H525c-2.8,0-5.1,2.1-5.4,4.9l-4.6,48.9c-0.2,1.6,0.5,3.3,1.7,4.4l35.9,33.8c1.3,1.2,1.9,3,1.6,4.8
		l-30.3,182.2c-0.6,3.5-4.3,5.5-7.6,4l-38-17.6c-2.7-1.2-3.9-4.4-2.6-7.1l28-61c1.5-3.3-0.6-7.1-4.2-7.6L353,867.4
		c-1.3-0.2-2.4-0.8-3.3-1.7L248,753.8c-0.5-0.5-1.1-1-1.8-1.3L10.6,646.7c-2.9-1.3-4-4.8-2.5-7.5l28.8-52.1c0.2-0.3,0.4-0.6,0.7-0.9
		l66.2-75.7c2.1-2.4,1.7-6-0.9-7.9L90.1,493c-1.5-1.1-2.3-2.9-2.2-4.8l7.7-96.6c0.1-0.7,0-1.5-0.3-2.2l-27.9-81.8
		c-0.6-1.9-0.2-3.9,1.1-5.4L175.8,186c0.6-0.7,1-1.4,1.3-2.3l21.2-81.7c0.6-2.4,2.9-4.1,5.4-4l64.4,2.4c1.1,0,2.2-0.3,3.1-0.9
		L420.7,2.3C422.8,1,425.5,1.2,427.3,3z"/>
	<path fill="none" stroke="#44303C" stroke-width="5" d="M33.6,12.8l10.2,6.1c2.9,1.7,3.5,5.7,1.2,8.2l-8.7,9.6
		c-0.9,1-1.4,2.3-1.4,3.6v31.4c0,0.8-0.2,1.5-0.5,2.2l-19.2,41.7c-1.4,3-5.2,4.1-8,2.2L3.1,115c-1.9-1.3-2.7-3.7-2.1-5.9l7.6-26.7
		C9.1,80.9,8.8,79.3,8,78l-3.8-5.8c-0.8-1.2-1.1-2.6-0.8-4l5.8-28.7c0.1-0.7,0.5-1.4,0.9-2.1l16.4-23.1
		C28.1,12.1,31.2,11.4,33.6,12.8z"/>
	<path fill="none" stroke="#44303C" stroke-width="5" d="M104.8,8l15.3,26.3c0.8,1.4,1,3.2,0.3,4.7l-7.1,17.4
		c-0.5,1.2-1.3,2.1-2.4,2.7L89.5,70.8c-2.1,1.1-4.7,0.8-6.4-0.9l-2.7-2.7c-1.1-1.1-1.7-2.7-1.5-4.3L81,38.1c0.1-0.9,0.4-1.9,1-2.6
		L89.4,25c0.7-1,1.8-1.8,3-2.1l0.6-0.2c3.3-0.9,4.9-4.5,3.4-7.6l-1-2c-1.2-2.5-0.4-5.5,2-7l0,0C99.9,4.6,103.3,5.4,104.8,8z"/>
</g>
<path fill="none" stroke="#44303C" stroke-width="4" stroke-linecap="round" stroke-linejoin="round" stroke-miterlimit="10" d="
	M131.4,627.5l9.4,5.7c0.2,0.1,0.4,0.4,0.5,0.6l2,8.6c0.1,0.3,0.3,0.6,0.7,0.7l21.3,7.2c0.4,0.1,0.8,0,1.1-0.3l46.8-58.4
	c0.3-0.4,0.8-0.5,1.2-0.3l1.9,0.8c0.3,0.1,0.7,0.1,1-0.2l7.9-6.6c0.4-0.3,0.5-0.9,0.2-1.3l-2.9-4.5c-0.2-0.3-0.2-0.7,0-1.1
	l32.9-56.1c0.2-0.4,0.2-0.9-0.2-1.2l-2.2-2.2c-0.4-0.4-1-0.4-1.4,0l-9.3,9.4c-0.1,0.1-0.2,0.2-0.2,0.3l-1.7,3.7
	c0,0.1-0.1,0.2-0.1,0.3l-0.6,4.8c0,0.2-0.1,0.4-0.2,0.5l-7.3,8.5c-0.2,0.2-0.5,0.4-0.8,0.3l-8.5-0.7c-0.6,0-1-0.6-0.9-1.2l1.1-5.4
	c0.1-0.6-0.4-1.2-1-1.2l-4.1,0.1c-0.3,0-0.7,0.2-0.8,0.5l-1.8,3c-0.3,0.4-0.8,0.6-1.2,0.4l-7.1-2.7c-0.2-0.1-0.5-0.1-0.7,0l-8.2,2.9
	c-0.2,0.1-0.4,0.2-0.5,0.4l-19.3,27.3c-0.2,0.3-0.7,0.5-1.1,0.4l-10.4-2.9c-0.3-0.1-0.6,0-0.8,0.1l0,0c-0.5,0.3-0.6,1.1-0.2,1.5
	l13.5,14.1c0.2,0.3,0.3,0.6,0.2,1l-2.1,7.5c-0.1,0.2,0,0.5,0.1,0.7l1.2,2.3c0.2,0.4,0.1,0.8-0.2,1.2l-2.3,2.4
	c-0.3,0.3-0.8,0.4-1.2,0.2l-6.3-3.2c-0.3-0.1-0.6-0.1-0.9,0l-15.1,7.9c-0.3,0.2-0.6,0.2-0.9,0l-6.6-3.3c-0.6-0.3-1.4,0.1-1.4,0.8
	l-2.1,15.4c-0.1,0.4-0.4,0.8-0.8,0.9l-7.3,1.2c-0.4,0.1-0.7,0.4-0.8,0.8l-1.8,7.1C130.8,626.9,131,627.3,131.4,627.5z"/>
<g>
	<path fill="#F73868" d="M206.21,591.73l0.31,0.12c0.02,0.01,0.03,0.04,0,0.05l-0.08,0.04c-0.01,0.01-0.02,0.02-0.02,0.03v0.05
		c0,0.01,0,0.02,0.01,0.02l0.07,0.06c0,0,0.01,0.01,0.01,0.01l0.08,0.22c0,0,0,0.01,0,0.01v0.23l0,0l0.15,0.29
		c0.01,0.01,0.02,0.02,0.03,0.02l0.3-0.07l0,0l0.07,0.07c0.01,0.01,0.01,0.01,0.02,0.01h0.04c0.01,0,0.03,0.01,0.03,0.02l0.07,0.29
		l0.07,0.26c0.01,0.02-0.02,0.04-0.04,0.04l-0.18-0.06c-0.01,0-0.01,0-0.02,0l-0.44,0.14c-0.02,0.01-0.03,0.03-0.02,0.04l0.06,0.12
		c0,0,0,0.01,0,0.01v0.23l0,0l0.05,0.05c0.01,0.01,0.01,0.04-0.01,0.05l-0.12,0.06c0,0-0.01,0-0.01,0l-0.54,0.08
		c-0.01,0-0.01,0-0.02,0.01l-0.07,0.07l0,0l-0.24-0.08c0,0,0,0,0,0l-0.14-0.07c-0.01-0.01-0.03,0-0.03,0.01l-0.05,0.05
		c-0.01,0.01-0.02,0.01-0.03,0.01l-0.13-0.06c-0.01,0-0.01,0-0.02,0l-0.37,0.07c-0.01,0-0.03,0-0.03-0.02l-0.06-0.11
		c-0.01-0.01-0.03-0.02-0.04-0.01l-0.59,0.29c-0.01,0.01-0.03,0-0.04-0.01l-0.46-0.53c0,0,0,0,0-0.01l-0.06-0.11
		c-0.01-0.02,0-0.04,0.03-0.04H204c0.02,0,0.03-0.01,0.03-0.03v-0.34c0-0.01,0.01-0.03,0.03-0.03l0.41-0.07
		c0.02,0,0.03-0.03,0.02-0.04l-0.21-0.34c-0.01-0.01-0.01-0.02,0-0.03l0.06-0.13c0.01-0.01,0.02-0.02,0.03-0.02h0.05
		c0.01,0,0.02,0,0.02-0.01l0.14-0.14c0.01-0.01,0.01-0.01,0.02-0.01h0.12c0.02,0,0.03-0.01,0.03-0.03v-0.04c0,0,0-0.01,0-0.01
		l0.07-0.13c0.01-0.01,0.02-0.02,0.03-0.02h0.11c0.02,0,0.03-0.01,0.03-0.03v-0.16c0-0.02,0.02-0.04,0.04-0.03l0.11,0.05
		c0,0,0.01,0,0.01,0h0.14c0.01,0,0.02,0,0.02-0.01l0.07-0.07l0.06-0.06c0.01-0.01,0.03-0.01,0.04,0l0.2,0.13
		c0.01,0.01,0.03,0.01,0.04,0l0.03-0.03c0.01-0.01,0.04-0.01,0.05,0.01l0.04,0.08c0.01,0.02,0.04,0.02,0.05,0l0.12-0.18
		c0.01-0.01,0.01-0.01,0.02-0.01h0.04c0.01,0,0.02-0.01,0.03-0.02l0.06-0.19C206.18,591.73,206.2,591.72,206.21,591.73z"/>
</g>
</svg>
