<svg xmlns="http://www.w3.org/2000/svg" viewBox="0 0 127.14 100"><path d="M127.14,12.16c-6.51,3.73-13,6.84-18.81,10.9-9.26,6.45-13.5,15.66-12.38,27a6,6,0,0,0,2.47,4.22c7.1,3.78,14.33,7.32,21.65,10.68,1.94.89,3,1.81,3.34,4,2,12.56-8.77,28.43-21.29,30.85a17,17,0,0,1-6.32-.19C74.56,95.53,62.81,79.43,65.3,58,68.73,28.43,89.76,5.65,118.94,0a3.6,3.6,0,0,1,3,1.37C124,5,125.59,8.85,127.14,12.16Z"/><path d="M62.56,12.93c-2.49,1-4.8,1.61-6.78,2.79C50.53,18.87,45,21.81,40.33,25.66c-7.34,6-9.95,14.34-9.58,23.7.1,2.46.89,4.3,3.18,5.41,7,3.4,14,7,21.15,10.16a4.87,4.87,0,0,1,3.37,4.3c1.84,12.56-8.77,28.07-21.22,30.54a17.56,17.56,0,0,1-6.65-.24C8.76,95.15-2.78,78.38.57,56.07c4.35-28.85,24.6-50.2,53.3-56,.91-.19,2.58.28,2.94,1C58.85,4.82,60.6,8.79,62.56,12.93Z"/></svg>